<svg xmlns="http://www.w3.org/2000/svg" viewBox="0 0 1789.87 521.18"><defs><style>.cls-1{fill:#009fdf;}</style></defs><title>AdobeStock_125108716_BlueHighlights</title><g id="Layer_2" data-name="Layer 2"><g id="image"><path d="M1328,357.65a3,3,0,0,1-3-3V179.92a3,3,0,0,1,.16-1l6.1-18-6.08-21h-9.87L1309.51,161l6.1,18a3,3,0,0,1,.16,1V354.65a3,3,0,0,1-6,0V180.41L1303.52,162a3,3,0,0,1-.05-1.76l6.62-24A3,3,0,0,1,1313,134h14.42a3,3,0,0,1,2.89,2.17l7,24a3,3,0,0,1,0,1.8L1331,180.41V354.65A3,3,0,0,1,1328,357.65Z"/><path d="M289.29,422.42a3,3,0,0,1-1.94-.71l-61.45-52a3,3,0,0,1-.35-4.24A83.2,83.2,0,0,1,267,338.93a3,3,0,0,1,3.7,2.09l21.53,77.59a3,3,0,0,1-2.9,3.81Zm-57.17-55.33,51.67,43.73-18.1-65.24A77.13,77.13,0,0,0,232.12,367.09Z"/><path d="M289.29,502.95a3,3,0,0,1-3-3V419.41a3,3,0,0,1,1.4-2.54l68.07-43a3,3,0,0,1,4.15.93,83.51,83.51,0,0,1-70.61,128.14Zm3-81.88v75.81a77.51,77.51,0,0,0,64.08-116.29Z"/><path class="cls-1" d="M136.94,341.9H109.69a66.19,66.19,0,0,1,0-132.38h27.24A66.2,66.2,0,0,1,199.26,298l18.66,37.57a3,3,0,0,1-3.35,4.27l-40.85-9.13A65.76,65.76,0,0,1,136.94,341.9ZM109.69,215.53a60.18,60.18,0,0,0,0,120.36h27.24A59.8,59.8,0,0,0,171.37,325a3,3,0,0,1,2.38-.47l36,8L193.3,299.53a3,3,0,0,1-.12-2.41,60.18,60.18,0,0,0-56.24-81.59Z"/><path class="cls-1" d="M1434.54,146.16h-22.69a55.28,55.28,0,0,1-30.74-9.27l-33.82,7.56a3,3,0,0,1-3.35-4.27l15.44-31.1a55.65,55.65,0,0,1,52.46-74.19h22.69a55.64,55.64,0,0,1,0,111.28Zm-52.81-15.49a3,3,0,0,1,1.72.54,49.31,49.31,0,0,0,28.4,8.94h22.69a49.63,49.63,0,0,0,0-99.25h-22.69a49.63,49.63,0,0,0-46.38,67.29,3,3,0,0,1-.12,2.41l-13.22,26.62,28.94-6.47A3,3,0,0,1,1381.73,130.67Z"/><path d="M349.8,369.28a3,3,0,0,1-2.26-1,77.57,77.57,0,0,0-58.25-26.37,78.64,78.64,0,0,0-10.09.65,3,3,0,1,1-.78-6,84.51,84.51,0,0,1,10.87-.7,83.58,83.58,0,0,1,62.76,28.41,3,3,0,0,1-2.26,5Z"/><path d="M238,484.48a3,3,0,0,1-1.92-.69,83.56,83.56,0,0,1-17.4-109,3,3,0,1,1,5.08,3.22,77.55,77.55,0,0,0,16.15,101.14,3,3,0,0,1-1.92,5.32Z"/><path class="cls-1" d="M521.13,469.58A116.9,116.9,0,1,1,638,352.68,117,117,0,0,1,521.13,469.58Zm0-227.79A110.89,110.89,0,1,0,632,352.68,111,111,0,0,0,521.13,241.79Z"/><path class="cls-1" d="M521.13,416.62a63.95,63.95,0,1,1,63.95-63.95A64,64,0,0,1,521.13,416.62Zm0-121.88a57.94,57.94,0,1,0,57.94,57.94A58,58,0,0,0,521.13,294.74Z"/><path class="cls-1" d="M521.13,369.58a16.9,16.9,0,1,1,16.9-16.9A16.92,16.92,0,0,1,521.13,369.58Zm0-27.79A10.89,10.89,0,1,0,532,352.68,10.9,10.9,0,0,0,521.13,341.79Z"/><path d="M521.13,445.73a93.05,93.05,0,1,1,93.05-93.05A93.16,93.16,0,0,1,521.13,445.73Zm0-180.09a87,87,0,1,0,87,87A87.14,87.14,0,0,0,521.13,265.64Z"/><path d="M521.13,389.71a37,37,0,1,1,37-37A37.07,37.07,0,0,1,521.13,389.71Zm0-68.05a31,31,0,1,0,31,31A31.06,31.06,0,0,0,521.13,321.65Z"/><path d="M696.68,521.18V97.64a27.22,27.22,0,0,1,27.19-27.19h346.61a27.22,27.22,0,0,1,27.19,27.19V521.18h6V97.64a33.24,33.24,0,0,0-33.2-33.2H723.87a33.24,33.24,0,0,0-33.2,33.2V521.18Z"/><path d="M725.34,521.18V144.29a18.72,18.72,0,0,1,18.7-18.7h306.27a18.72,18.72,0,0,1,18.7,18.7V521.18h6V144.29a24.74,24.74,0,0,0-24.71-24.71H744a24.74,24.74,0,0,0-24.71,24.71V521.18Z"/><path class="cls-1" d="M827.37,218.81H742.69a3,3,0,0,1-3-3V165.26a3,3,0,0,1,3-3h84.68a3,3,0,0,1,3,3V215.8A3,3,0,0,1,827.37,218.81Zm-81.68-6h78.67V168.26H745.69Z"/><path class="cls-1" d="M827.37,382.92H742.69a3,3,0,0,1-3-3V329.37a3,3,0,0,1,3-3h84.68a3,3,0,0,1,3,3v50.55A3,3,0,0,1,827.37,382.92Zm-81.68-6h78.67V332.38H745.69Z"/><path d="M1049.91,382.92H827.37a3,3,0,0,1-3-3V329.37a3,3,0,0,1,3-3h222.54a3,3,0,0,1,3,3v50.55A3,3,0,0,1,1049.91,382.92Zm-219.53-6H1046.9V332.38H830.37Z"/><path d="M938.64,218.81H854a3,3,0,0,1-3-3V165.26a3,3,0,0,1,3-3h84.68a3,3,0,0,1,3,3V215.8A3,3,0,0,1,938.64,218.81Zm-81.68-6h78.67V168.26H857Z"/><path class="cls-1" d="M1049.91,218.81H965.23a3,3,0,0,1-3-3V165.26a3,3,0,0,1,3-3h84.68a3,3,0,0,1,3,3V215.8A3,3,0,0,1,1049.91,218.81Zm-81.68-6h78.67V168.26H968.23Z"/><path d="M827.37,453.38H742.69a3,3,0,0,1-3-3V399.83a3,3,0,0,1,3-3h84.68a3,3,0,0,1,3,3v50.55A3,3,0,0,1,827.37,453.38Zm-81.68-6h78.67V402.84H745.69Z"/><path class="cls-1" d="M938.64,453.38H854a3,3,0,0,1-3-3V399.83a3,3,0,0,1,3-3h84.68a3,3,0,0,1,3,3v50.55A3,3,0,0,1,938.64,453.38Zm-81.68-6h78.67V402.84H857Z"/><path class="cls-1" d="M1021.68,495a33.2,33.2,0,1,1,33.2-33.2A33.24,33.24,0,0,1,1021.68,495Zm0-60.4a27.19,27.19,0,1,0,27.19,27.19A27.22,27.22,0,0,0,1021.68,434.57Z"/><path class="cls-1" d="M1354.07,398h-67.4a10,10,0,0,1-10-10v-7.22a10,10,0,0,1,10-10h67.4a10,10,0,0,1,10,10V388A10,10,0,0,1,1354.07,398Zm-67.4-21.23a4,4,0,0,0-4,4V388a4,4,0,0,0,4,4h67.4a4,4,0,0,0,4-4v-7.22a4,4,0,0,0-4-4Z"/><path class="cls-1" d="M1296.46,521.18V398h47.82V521.18h6V395a3,3,0,0,0-3-3h-53.83a3,3,0,0,0-3,3V521.18Z"/><path class="cls-1" d="M1679.69,367.22h0a3,3,0,0,1-2.29-1.05l-34.79-40.76a3,3,0,0,1,2.29-5h13.84V289.28a3,3,0,0,1,3-3h35.89a3,3,0,0,1,3,3v31.17h13.84a3,3,0,0,1,2.29,5L1682,366.17A3,3,0,0,1,1679.69,367.22Zm-28.27-40.76,28.27,33.12L1708,326.46h-10.33a3,3,0,0,1-3-3V292.29h-29.88v31.17a3,3,0,0,1-3,3Z"/><path d="M52.76,193.13a3,3,0,0,1-3-3.51l3.3-19.23-14-13.62a3,3,0,0,1,1.67-5.13l19.3-2.81,8.63-17.49a3,3,0,0,1,2.7-1.68h0a3,3,0,0,1,2.7,1.68l8.63,17.49,19.3,2.81a3,3,0,0,1,1.67,5.13l-14,13.62L93,189.62a3,3,0,0,1-4.36,3.17l-17.27-9.08-17.27,9.08A3,3,0,0,1,52.76,193.13Zm-5.08-36.41,10.74,10.47a3,3,0,0,1,.86,2.66l-2.54,14.78,13.27-7a3,3,0,0,1,2.8,0l13.27,7-2.54-14.78a3,3,0,0,1,.86-2.66l10.74-10.47-14.84-2.16a3,3,0,0,1-2.26-1.64l-6.64-13.45-6.64,13.45a3,3,0,0,1-2.26,1.64Z"/><path d="M284,308.89a3,3,0,0,1-1.4-.35L268.33,301,254,308.54a3,3,0,0,1-4.36-3.17l2.73-15.91-11.56-11.27a3,3,0,0,1,1.67-5.13l16-2.32,7.15-14.48a3,3,0,0,1,2.7-1.68h0a3,3,0,0,1,2.7,1.68l7.14,14.48,16,2.32a3,3,0,0,1,1.67,5.13l-11.56,11.27L287,305.37a3,3,0,0,1-3,3.51ZM249.4,278.14l8.33,8.12a3,3,0,0,1,.86,2.66l-2,11.47,10.3-5.41a3,3,0,0,1,2.8,0l10.3,5.41-2-11.47a3,3,0,0,1,.86-2.66l8.33-8.12-11.51-1.67a3,3,0,0,1-2.26-1.64l-5.15-10.43-5.15,10.43a3,3,0,0,1-2.26,1.64Z"/><path d="M425.78,499.11a3,3,0,0,1-1.4-.35l-12.3-6.47-12.3,6.47a3,3,0,0,1-4.36-3.17l2.35-13.7-10-9.7a3,3,0,0,1,1.67-5.13l13.76-2,6.15-12.46a3,3,0,0,1,5.39,0l6.15,12.46,13.76,2a3,3,0,0,1,1.67,5.13l-10,9.7,2.35,13.7a3,3,0,0,1-3,3.51Zm-13.7-13.21a3,3,0,0,1,1.4.35l8.31,4.37-1.59-9.25a3,3,0,0,1,.86-2.66l6.72-6.55-9.29-1.35a3,3,0,0,1-2.26-1.64l-4.16-8.42-4.16,8.42a3,3,0,0,1-2.26,1.64l-9.29,1.35,6.72,6.55a3,3,0,0,1,.86,2.66l-1.59,9.25,8.31-4.37A3,3,0,0,1,412.08,485.9Z"/><path d="M1534.92,146.68a3,3,0,0,1-1.4-.35l-12.3-6.47-12.3,6.47a3,3,0,0,1-4.36-3.17l2.35-13.7-10-9.7a3,3,0,0,1,1.67-5.13l13.76-2,6.15-12.47a3,3,0,0,1,5.39,0l6.15,12.47,13.76,2a3,3,0,0,1,1.67,5.13l-10,9.7,2.35,13.7a3,3,0,0,1-3,3.51Zm-13.7-13.22a3,3,0,0,1,1.4.35l8.31,4.37-1.59-9.26a3,3,0,0,1,.86-2.66l6.72-6.55-9.29-1.35a3,3,0,0,1-2.26-1.64l-4.16-8.42-4.16,8.42a3,3,0,0,1-2.26,1.64l-9.29,1.35,6.72,6.55a3,3,0,0,1,.86,2.66l-1.59,9.26,8.31-4.37A3,3,0,0,1,1521.22,133.46Z"/><path d="M195.61,135.16a16.56,16.56,0,1,1,16.56-16.56A16.58,16.58,0,0,1,195.61,135.16Zm0-27.11a10.55,10.55,0,1,0,10.55,10.55A10.56,10.56,0,0,0,195.61,108.06Z"/><path d="M171.51,185.08a24.56,24.56,0,1,1,24.56-24.56A24.59,24.59,0,0,1,171.51,185.08Zm0-43.11a18.55,18.55,0,1,0,18.55,18.55A18.57,18.57,0,0,0,171.51,142Z"/><path d="M152.26,191.8a3,3,0,0,1-1.69-.52,37.24,37.24,0,0,1-12.54-47,3,3,0,0,1,5.41,2.63,30.9,30.9,0,0,0-3.12,13.62A31.21,31.21,0,0,0,154,186.31a3,3,0,0,1-1.7,5.49Z"/><path d="M452.58,223.48A24.5,24.5,0,1,1,477.09,199,24.53,24.53,0,0,1,452.58,223.48Zm0-43A18.49,18.49,0,1,0,471.08,199,18.51,18.51,0,0,0,452.58,180.48Z"/><path d="M403.44,240.43a14.82,14.82,0,1,1,14.82-14.82A14.84,14.84,0,0,1,403.44,240.43Zm0-23.63a8.81,8.81,0,1,0,8.81,8.81A8.82,8.82,0,0,0,403.44,216.8Z"/><path d="M649.91,500.65a17.89,17.89,0,1,1,17.89-17.89A17.91,17.91,0,0,1,649.91,500.65Zm0-29.76a11.87,11.87,0,1,0,11.87,11.87A11.89,11.89,0,0,0,649.91,470.89Z"/><path d="M574.25,481.4a3,3,0,0,1-1.11-5.8A131.47,131.47,0,0,0,650,391.51a3,3,0,0,1,5.76,1.71,137.53,137.53,0,0,1-80.39,88A3,3,0,0,1,574.25,481.4Z"/><path d="M377.47,355.68a3,3,0,0,1-3-3,145.46,145.46,0,0,1,28.89-87.41,3,3,0,0,1,4.82,3.59,139.49,139.49,0,0,0-27.7,83.83A3,3,0,0,1,377.47,355.68Z"/><path d="M232.41,502.95a3,3,0,0,1-1.73-.55,101.64,101.64,0,0,1-30.06-132.57,3,3,0,1,1,5.24,2.94,95.63,95.63,0,0,0,28.29,124.73,3,3,0,0,1-1.74,5.46Z"/><path d="M318.09,369.57a3,3,0,0,1-1.44-.37,57.24,57.24,0,0,0-27.36-7,3,3,0,0,1,0-6,63.27,63.27,0,0,1,30.24,7.7,3,3,0,0,1-1.44,5.64Z"/><path d="M302.78,481.08a3,3,0,0,1-.67-5.94,56.87,56.87,0,0,0,44.35-55.73,3,3,0,0,1,6,0,62.85,62.85,0,0,1-49,61.59A3,3,0,0,1,302.78,481.08Z"/><path d="M386.35,166.44a3,3,0,0,1-2.31-1.08l-55-65.9a3,3,0,0,1,.83-4.54,46.65,46.65,0,0,1,58.83,70.44,3,3,0,0,1-2.31,1.08ZM336,98.5l50.21,60.12A40.65,40.65,0,0,0,336,98.5Z"/><path d="M352.8,182.21a46.67,46.67,0,0,1-35.89-76.5,3,3,0,0,1,2.31-1.08h0a3,3,0,0,1,2.31,1.08l55,65.9a3,3,0,0,1-.83,4.54A46.47,46.47,0,0,1,352.8,182.21Zm-33.47-69.76a40.65,40.65,0,0,0,50.21,60.12Z"/><path d="M239.75,149.13a3,3,0,0,1-1.31-5.71l79.47-38.49a3,3,0,0,1,2.62,5.41l-79.47,38.49A3,3,0,0,1,239.75,149.13Z"/><path d="M322.23,247.88a3,3,0,0,1-2.43-4.78l52-71.34a3,3,0,1,1,4.86,3.54l-52,71.34A3,3,0,0,1,322.23,247.88Z"/><path d="M240.68,232.17a3,3,0,0,1-1.93-5.31l106.06-88.58a3,3,0,0,1,3.85,4.61L242.61,231.47A3,3,0,0,1,240.68,232.17Z"/><path d="M155.44,250.65h-65a3,3,0,0,1,0-6h65a3,3,0,0,1,0,6Z"/><path d="M175.49,270.06H70.43a3,3,0,0,1,0-6H175.49a3,3,0,1,1,0,6Z"/><path d="M167.94,289.47H78a3,3,0,0,1,0-6h90a3,3,0,0,1,0,6Z"/><path d="M155.44,308.89h-65a3,3,0,0,1,0-6h65a3,3,0,1,1,0,6Z"/><path d="M521.13,355.68a3,3,0,0,1-2.13-5.13l85.25-85.25L607,239.71a3,3,0,0,1,.86-1.81l27.55-27.55.06-.06,13.45-13.45a3,3,0,0,1,5.09,2.61l-4,24.38,24.39-4a3,3,0,0,1,2.61,5.09l-13.45,13.45-.06.06-14.36,14.36,0,0L635.9,266a3,3,0,0,1-1.81.86l-25.58,2.71L523.26,354.8A3,3,0,0,1,521.13,355.68ZM622,256.08l-6.7,6.71L632.4,261l6.5-6.5Zm-9.14-14.68L611,258.54l6.7-6.7,1.61-16.93Zm23.56.26-7.74,7.74,16.93-1.61,7.74-7.74ZM626,228.23l-1.61,16.93,7.74-7.74,1.61-16.93Zm21.75,2.07L643.07,235,660,233.38l6.1-6.1Zm-7.33-16.49-1.61,16.93L643.5,226l3-18.34Z"/><path d="M569.05,225.7a3.07,3.07,0,0,1-.51,0c-1.72-.3-42.41-7.8-67.55-56.2C484,136.79,476.09,88.07,475.76,86a3,3,0,0,1,5.94-1c.08.49,8.13,49.83,24.64,81.63,22.29,42.91,58,51.93,62.72,52.94,4.67-1,40.49-10.14,62.72-52.94,16.52-31.81,24.56-81.13,24.64-81.63a3,3,0,0,1,5.94,1c-.33,2.06-8.27,50.78-25.24,83.45-25.14,48.4-65.83,55.9-67.55,56.2A3.07,3.07,0,0,1,569.05,225.7Z"/><path d="M635.43,74a3,3,0,0,1-1.59-.45c-27.58-17.19-56.32-54.12-64.79-65.49-8.47,11.35-37.17,48.24-64.73,65.45a3,3,0,1,1-3.18-5.1C532.24,49,566.27,1.73,566.61,1.26a3,3,0,0,1,4.89,0c.34.48,34.42,47.83,65.53,67.21A3,3,0,0,1,635.43,74Z"/><path d="M569.05,210.27a3,3,0,0,1-1.06-.19c-1.36-.51-33.59-13-53.54-51.37-13.52-26-19.84-64.82-20.11-66.46a3,3,0,0,1,3-3.48c26.41,0,68.86-58.92,69.29-59.51a3,3,0,0,1,4.89,0c.43.6,42.9,59.51,69.29,59.51a3,3,0,0,1,3,3.48c-.26,1.64-6.59,40.43-20.11,66.46-19.95,38.41-52.18,50.86-53.54,51.37A3,3,0,0,1,569.05,210.27ZM500.85,94.51c1.82,9.9,8.06,40.48,18.94,61.42,16.87,32.48,43.63,45.6,49.26,48.07,5.63-2.47,32.39-15.59,49.26-48.07,10.88-21,17.12-51.53,18.94-61.42-25.49-3.77-58.89-46-68.2-58.44C559.74,48.48,526.34,90.75,500.85,94.51Z"/><path d="M583.17,149.22H554.94a13.31,13.31,0,0,1-13.29-13.29V122.15a13.31,13.31,0,0,1,13.29-13.29h28.23a13.31,13.31,0,0,1,13.29,13.29v13.79A13.31,13.31,0,0,1,583.17,149.22Zm-28.23-34.35a7.29,7.29,0,0,0-7.28,7.28v13.79a7.29,7.29,0,0,0,7.28,7.28h28.23a7.29,7.29,0,0,0,7.28-7.28V122.15a7.29,7.29,0,0,0-7.28-7.28Z"/><path d="M580,114.21a3,3,0,0,1-3-3V97.42a7.94,7.94,0,1,0-15.87,0V111a3,3,0,0,1-6,0V97.42a13.95,13.95,0,1,1,27.89,0v13.78A3,3,0,0,1,580,114.21Z"/><path d="M569.05,140a3,3,0,0,1-3-3v-9.08a3,3,0,1,1,6,0V137A3,3,0,0,1,569.05,140Z"/><path d="M997.3,49.89H738.11a3,3,0,0,1,0-6H997.3a3,3,0,0,1,0,6Z"/><path d="M916.19,99.85H811.48a3,3,0,0,1,0-6H916.19a3,3,0,0,1,0,6Z"/><path d="M944,106.82a10,10,0,1,1,10-10A10,10,0,0,1,944,106.82Zm0-13.95a4,4,0,1,0,4,4A4,4,0,0,0,944,92.87Z"/><path d="M975.89,106.82a10,10,0,1,1,10-10A10,10,0,0,1,975.89,106.82Zm0-13.95a4,4,0,1,0,4,4A4,4,0,0,0,975.89,92.87Z"/><path d="M1137.21,66.95A22.92,22.92,0,1,1,1160.13,44,22.94,22.94,0,0,1,1137.21,66.95Zm0-39.83A16.91,16.91,0,1,0,1154.12,44,16.93,16.93,0,0,0,1137.21,27.12Z"/><path d="M1679.69,152A22.92,22.92,0,1,1,1702.6,129,22.94,22.94,0,0,1,1679.69,152Zm0-39.83A16.91,16.91,0,1,0,1696.59,129,16.93,16.93,0,0,0,1679.69,112.13Z"/><path d="M827.37,243.89H742.69a3,3,0,0,1,0-6h84.68a3,3,0,0,1,0,6Z"/><path d="M827.37,263.19H742.69a3,3,0,0,1,0-6h84.68a3,3,0,1,1,0,6Z"/><path d="M827.37,282.5H742.69a3,3,0,0,1,0-6h84.68a3,3,0,0,1,0,6Z"/><path d="M827.37,301.8H742.69a3,3,0,0,1,0-6h84.68a3,3,0,1,1,0,6Z"/><path class="cls-1" d="M938.64,243.89H854a3,3,0,0,1,0-6h84.68a3,3,0,0,1,0,6Z"/><path class="cls-1" d="M938.64,263.19H854a3,3,0,0,1,0-6h84.68a3,3,0,1,1,0,6Z"/><path class="cls-1" d="M938.64,282.5H854a3,3,0,0,1,0-6h84.68a3,3,0,0,1,0,6Z"/><path class="cls-1" d="M938.64,301.8H854a3,3,0,0,1,0-6h84.68a3,3,0,1,1,0,6Z"/><path d="M1049.91,243.89H965.23a3,3,0,0,1,0-6h84.68a3,3,0,0,1,0,6Z"/><path d="M1049.91,263.19H965.23a3,3,0,0,1,0-6h84.68a3,3,0,0,1,0,6Z"/><path d="M1049.91,282.5H965.23a3,3,0,0,1,0-6h84.68a3,3,0,0,1,0,6Z"/><path d="M1049.91,301.8H965.23a3,3,0,0,1,0-6h84.68a3,3,0,0,1,0,6Z"/><path d="M1027.92,348.62H854a3,3,0,0,1,0-6h174a3,3,0,1,1,0,6Z"/><path d="M920.26,366.68H854a3,3,0,0,1,0-6h66.3a3,3,0,1,1,0,6Z"/><path d="M827.37,471.55H742.69a3,3,0,0,1,0-6h84.68a3,3,0,0,1,0,6Z"/><path d="M827.37,485.77H742.69a3,3,0,0,1,0-6h84.68a3,3,0,0,1,0,6Z"/><path d="M827.37,500H742.69a3,3,0,0,1,0-6h84.68a3,3,0,1,1,0,6Z"/><path d="M938.64,471.55H854a3,3,0,0,1,0-6h84.68a3,3,0,0,1,0,6Z"/><path d="M938.64,485.77H854a3,3,0,0,1,0-6h84.68a3,3,0,0,1,0,6Z"/><path d="M938.64,500H854a3,3,0,0,1,0-6h84.68a3,3,0,1,1,0,6Z"/><path class="cls-1" d="M1021.68,483.53a3,3,0,0,1-3-3V464.76h-15.76a3,3,0,0,1,0-6h15.76V443a3,3,0,1,1,6,0v15.76h15.76a3,3,0,1,1,0,6h-15.76v15.76A3,3,0,0,1,1021.68,483.53Z"/><path d="M1120.15,298.46a3,3,0,0,1-3-3V173.79a3,3,0,0,1,6,0V295.45A3,3,0,0,1,1120.15,298.46Z"/><path d="M1123.16,521.18V377.29a3,3,0,0,0-6,0V521.18Z"/><path d="M1172.37,178.6c5.36,5.86,7.8,13.17,7.8,17.48v325.1h6V196.08c0-6.75-3.77-15.41-9.37-21.54-4.67-5.11-10.88-11.91-17.67-19.36-12.62-13.86-1.85-30-1.39-30.63l.15-.24,19.68-35,18.88,8.13-9.38,32.6A12.62,12.62,0,0,0,1193.2,145c10.79,5.37,26.27,5.38,37.65,0,5.27-2.48,7.93-8.91,6.19-15l-9.38-32.6,18.88-8.13,19.68,35,.14.23c.46.68,11.23,16.78-1.39,30.64-6.79,7.45-13,14.25-17.67,19.36-5.61,6.13-9.37,14.79-9.37,21.54v325.1h6V196.08c0-4.31,2.44-11.62,7.8-17.48,4.68-5.11,10.89-11.92,17.68-19.37,15.15-16.64,3.22-36,2-37.95l-21-37.25a3,3,0,0,0-3.81-1.29L1222.85,93a3,3,0,0,0-1.7,3.59l10.11,35.15c.92,3.19-.39,6.64-3,7.86-9.67,4.55-23.3,4.57-32.41,0-2.64-1.32-3.95-4.71-3-7.89L1203,96.57a3,3,0,0,0-1.7-3.59l-23.8-10.24a3,3,0,0,0-3.81,1.29l-21,37.25c-1.23,1.9-13.16,21.31,2,37.95C1161.48,166.68,1167.69,173.49,1172.37,178.6Z"/><path d="M1210.41,164.07c-22,0-31-10.28-31.5-10.83a3,3,0,0,1,4.58-3.89c.21.23,13,14.16,46.26,6.25a3,3,0,1,1,1.39,5.85A89.82,89.82,0,0,1,1210.41,164.07Z"/><path d="M1205.21,521.18V214.58c.07-1.07,2.92-4.3,6.84-4.3s6.77,3.23,6.84,4.29V521.18h6V214.57c0-4.64-5.93-10.31-12.85-10.31s-12.85,5.67-12.85,10.31V521.18Z"/><path d="M1300,321.44a3,3,0,0,1-3-3V229.15a3,3,0,0,1,6,0v89.28A3,3,0,0,1,1300,321.44Z"/><path d="M1484.27,356.56A101.69,101.69,0,1,1,1586,254.87,101.81,101.81,0,0,1,1484.27,356.56Zm0-197.37a95.68,95.68,0,1,0,95.68,95.68A95.79,95.79,0,0,0,1484.27,159.19Z"/><path d="M1574.51,297.82a3,3,0,0,1-2.39-1.18c-3.21-4.18-5.15-7.07-6.56-9.18-1.57-2.34-2.24-3.31-3-3.75s-2.47-.81-5.47-1.37l-.56-.1c-3.81-.71-8.38-.12-12.82.46-7.49,1-15.24,2-18.6-4.18-2.16-4-2.51-5.72-1.61-8.18.23-.62.51-1.39-.2-4.39-1.64-6.93-3.94-7.94-9.6-8.89-8.06-1.34-10.85-3.59-12.54-15-.36-2.39-.63-2.53-4.19-2.06-2.13.28-4.77.62-6.79-1.09a6.33,6.33,0,0,1-2-4.84c-.13-3.62,1.54-13.36,6.48-16a20.63,20.63,0,0,1,7.1-2.42,8.12,8.12,0,0,1,.34-5.38c1.34-3,4.57-5.18,10.17-6.87,2.61-.79,4.73-1.28,6.44-1.67,4.65-1.07,4.67-1.15,5.18-3.27,1.17-4.89,4.7-5.28,6.81-5.51a8.3,8.3,0,0,0,5.47-2.25c4.24-3.84,8.15-7.7,11.62-11.45a3,3,0,0,1,4.21-.2,101.65,101.65,0,0,1,25.24,117,3,3,0,0,1-2.39,1.77Zm-21.85-21.91a27.61,27.61,0,0,1,5,.42l.55.1c7.72,1.43,8.41,1.86,12.31,7.68.83,1.24,1.85,2.75,3.2,4.64a95.66,95.66,0,0,0-23.59-103.23c-3,3.19-6.38,6.42-9.94,9.64a14.15,14.15,0,0,1-8.85,3.77,9.16,9.16,0,0,0-1.38.21,2.9,2.9,0,0,0-.25.73c-1.4,5.82-4.87,6.62-9.68,7.72-1.62.37-3.63.83-6,1.56-5,1.52-6.17,3-6.42,3.57-.17.37-.3,1.07.5,2.78.58,1.25,1.38,3,.27,4.6a3.82,3.82,0,0,1-3.7,1.45,12.46,12.46,0,0,0-7.17,1.81c-1.52.82-3.44,6.89-3.31,10.48,0,.15,0,.28,0,.37a14.48,14.48,0,0,0,2-.19c2.89-.38,9.66-1.26,10.91,7.14,1.33,8.91,2.28,9.07,7.59,10,7.62,1.27,12.18,3.79,14.47,13.43,1,4.38.57,6.27,0,7.83,0,.09-.07.17-.09.26a11.67,11.67,0,0,0,1.34,3c1.39,2.54,6.81,1.84,12.55,1.1A76.18,76.18,0,0,1,1552.66,275.91ZM1503,218.82h0Z"/><path d="M1388.61,282.2a3,3,0,0,1-2.91-2.27,101.78,101.78,0,0,1,44.89-111.43,3,3,0,0,1,4.58,2.29c.71,1.57,8.73,3.6,13.65,3,4.15-.54,13.1-1.18,17.26.23a12.88,12.88,0,0,0,1.81-.18c3.15-.43,10.54-1.46,12.33,9.5s2.24,15.66-.46,19.71a14.43,14.43,0,0,0-1.11,2.14,17.94,17.94,0,0,1-6.68,8.15l-.53.39c-4.91,3.57-6.39,4.64-8.92,9.42-2.89,5.45-6.17,10.57-10.62,11.08a6.08,6.08,0,0,1-2.62-.28,6.58,6.58,0,0,0,1.13,2.57c.77,1.23,1.82,2.92,1.26,5.12s-2.5,4-6.91,6.52a44.41,44.41,0,0,1-10.41,4.22c-3.61,1-3.62,1.11-3.85,2.9a15.54,15.54,0,0,1-5.86,10.74,10.26,10.26,0,0,1-8,1.84c-1.79-.35-10.91-1.67-15,6.15-2.47,4.74-7,7.66-12.75,8.22Zm42.56-106.92a95.15,95.15,0,0,0-42.58,79.59,96.13,96.13,0,0,0,2.28,20.84,8.85,8.85,0,0,0,5.45-4.51c4.68-9,14.15-10.69,21.45-9.28a4.21,4.21,0,0,0,3.36-.81,9.71,9.71,0,0,0,3.42-6.64c.74-5.78,4.34-6.82,8.14-7.91a38.65,38.65,0,0,0,9.12-3.68,18.13,18.13,0,0,0,3.87-2.63l-.36-.59a11.68,11.68,0,0,1-2.07-5.81c0-.27,0-.49-.05-.68-.64.14-1.5.39-2.25.6-1.44.41-3.23.92-5.4,1.38-8.19,1.73-9,1.74-15.77,1.29l-1.29-.09c-8-.52-8.94-4.4-9.24-9-.06-.87-.12-1.77-.26-2.72-.18-1.18-.19-1.25-2.42-1.68a11.09,11.09,0,0,1-5.4-2.21c-3.05-2.57-2.82-7.65-1-11.35,1.69-3.43,4.5-5.17,7.35-4.56,4.93,1.07,8.29.55,10-1.57,4.18-5.22,7.35-6.26,16.13-5.3,9.83,1.08,10.79,8.91,11.72,16.48.09.74.18,1.5.29,2.28.85,6.45.85,6.45,3.15,9,.49.54,1.06,1.16,1.72,1.93a1.86,1.86,0,0,0,.73.6c.09,0,1.79,0,6-7.92,3.18-6,5.54-7.72,10.7-11.47l.53-.39a12.13,12.13,0,0,0,4.74-5.76,19.94,19.94,0,0,1,1.58-3c1.33-2,1.24-5-.46-15.41-.85-5.17-2.23-5-5.58-4.52a9.83,9.83,0,0,1-4.56-.08c-2.14-.72-8.81-.7-14.57,0-4,.51-13.38-.34-17.79-3.89C1431.57,175.65,1431.36,175.47,1431.17,175.29Zm-24.71,35.46a5.62,5.62,0,0,0-1.5,3,3.63,3.63,0,0,0,.07,2.42,6.16,6.16,0,0,0,2.67.9c2.39.47,6.4,1.25,7.22,6.68.18,1.2.25,2.27.32,3.22.21,3.2.21,3.2,3.64,3.43l1.3.09c6.15.41,6.52.43,14.13-1.18,2-.42,3.58-.87,5-1.28,1.06-.3,2-.58,3-.76-1.45-2.11-1.86-4.15-2.6-9.73-.1-.8-.2-1.58-.29-2.34-1-8.51-1.81-10.73-6.41-11.23-7.65-.84-8.38.07-10.78,3.08C1419,211,1413.69,212.27,1406.46,210.75Z"/><path d="M1461.78,354a3,3,0,0,1-.68-.08,101.6,101.6,0,0,1-59.83-40.28,3,3,0,0,1,1.57-4.61,39,39,0,0,0,5.1-2.12,62.46,62.46,0,0,1,7.56-3.11,1.3,1.3,0,0,0,.42-.2c.38-.89-1.16-4.48-2-6.41-1.75-4.07-3.56-8.28-1.79-11.69a6.83,6.83,0,0,1,5-3.44l2.11-.45c8.58-1.86,13.75-3,16.45,4.82a18,18,0,0,1,.87,5.44c.11,2.58.12,2.79,4.41,3.13,3.14.26,5.2-1.3,7.21-2.8,1.8-1.34,3.85-2.87,6.35-2s3.76,3.89,4.63,7a58.35,58.35,0,0,1,1.69,8c.37,2.53.37,2.53,5.07,6.72h0a14.12,14.12,0,0,0,5.72,3.26c1.17.37,2.77.88,3.42,2.65.74,2-.17,3.47-2.88,7.75l-1.12,1.77a40.7,40.7,0,0,1-6.09,7.89l-.3.31c.08.47.27,1.26.47,2.08l.18.78a38.44,38.44,0,0,0,1.4,4.43c1.22,3.36,3.07,8.43-3.87,11A3,3,0,0,1,1461.78,354Zm-53.3-40.72a95.54,95.54,0,0,0,53,34.56,2.87,2.87,0,0,0,.4-.24,16.52,16.52,0,0,0-.85-2.76,43.47,43.47,0,0,1-1.6-5.11l-.18-.77c-1-4.12-1.14-5.42,1.41-8a35.26,35.26,0,0,0,5.27-6.86l1.13-1.78c.44-.7.87-1.38,1.24-2a20.36,20.36,0,0,1-6.41-4h0c-5.61-5-6.36-5.9-7-10.33a52.25,52.25,0,0,0-1.54-7.22,19.62,19.62,0,0,0-.8-2.37l-.8.59c-2.36,1.76-5.92,4.41-11.29,4-8.85-.72-9.75-4.6-9.93-8.87a12.52,12.52,0,0,0-.54-3.73c-.92-2.66-1-2.76-9.5-.91l-2.13.46a1.94,1.94,0,0,0-.9.34c-.44.89,1.2,4.71,2,6.54,1.68,3.92,3.43,8,1.92,11.3a6.33,6.33,0,0,1-4,3.4,56.59,56.59,0,0,0-6.86,2.83C1409.82,312.63,1409.15,312.94,1408.48,313.24Zm62,7.77h0Z"/><path d="M1361.49,288.89a3,3,0,0,1-2.91-2.27,129.86,129.86,0,0,1,26.15-114.75,3,3,0,0,1,4.61,3.85,123.85,123.85,0,0,0-24.94,109.43,3,3,0,0,1-2.92,3.74Z"/><path d="M1597.43,201.06a3,3,0,0,1-2.69-1.66,124.16,124.16,0,0,0-43.17-48.21,3,3,0,0,1,3.28-5,130.16,130.16,0,0,1,45.26,50.55,3,3,0,0,1-2.68,4.36Z"/><path d="M1631.53,462.25h-219.7a3,3,0,0,1-3-3V342.55a3,3,0,0,1,4.44-2.64l108.42,58.59,98-52.94h-59a3,3,0,0,1,0-6h70.84l.39,0a3,3,0,0,1,2.68,3V459.24A3,3,0,0,1,1631.53,462.25Zm-216.69-6h213.68V347.59l-105.41,57a3,3,0,0,1-2.86,0l-105.41-57Z"/><path d="M1631.53,345.55a3,3,0,0,1-2.12-.88,3.24,3.24,0,0,1-.37-.45,3.72,3.72,0,0,1-.28-.52,3.6,3.6,0,0,1-.17-.56,3,3,0,0,1,.82-2.72,2.73,2.73,0,0,1,.46-.37,3.15,3.15,0,0,1,.51-.28,3.72,3.72,0,0,1,.57-.17,2.89,2.89,0,0,1,1.17,0,3.6,3.6,0,0,1,.56.17,3.24,3.24,0,0,1,.52.28,2.62,2.62,0,0,1,.45.37,3,3,0,0,1,.88,2.12,3,3,0,0,1-.06.59,2.31,2.31,0,0,1-.17.56,3.77,3.77,0,0,1-.27.52,3.31,3.31,0,0,1-.38.45A3,3,0,0,1,1631.53,345.55Z"/><path d="M1428.51,448.78a3,3,0,0,1-1.89-5.34l46.84-37.84a3,3,0,1,1,3.78,4.68l-46.84,37.84A3,3,0,0,1,1428.51,448.78Z"/><path d="M1614.86,448.78a3,3,0,0,1-1.89-.67l-46.84-37.84a3,3,0,0,1,3.78-4.68l46.84,37.84a3,3,0,0,1-1.89,5.34Z"/><path d="M1455.68,478.54h-58a3,3,0,0,1-3-3V428.71a3,3,0,1,1,6,0v43.82h55a3,3,0,1,1,0,6Z"/><path d="M1755.44,498.79a22.86,22.86,0,1,1,22.86-22.86A22.89,22.89,0,0,1,1755.44,498.79Zm0-39.72a16.85,16.85,0,1,0,16.85,16.85A16.87,16.87,0,0,0,1755.44,459.07Z"/><path d="M1716.39,441.35c-4,0-7.76-1.69-11.07-5-7.71-7.75-11.17-22.43-11.13-32.8.05-11.7,9.63-15.09,14.68-15.24h14.94c5.15.16,14.73,3.55,14.78,15.25,0,10.37-3.42,25-11.13,32.8C1724.15,439.66,1720.42,441.35,1716.39,441.35Zm-7.36-47c-1.09.06-8.79.75-8.83,9.26,0,9.45,3.17,22.29,9.38,28.53,4.29,4.31,9.34,4.31,13.63,0,6.21-6.24,9.42-19.07,9.38-28.53,0-8.74-8-9.23-8.86-9.26Z"/><path d="M1743.57,385.11a20.51,20.51,0,1,1,20.51-20.51A20.53,20.53,0,0,1,1743.57,385.11Zm0-35a14.5,14.5,0,1,0,14.5,14.5A14.52,14.52,0,0,0,1743.57,350.1Z"/><path d="M1714.48,217.37a11.76,11.76,0,1,1,11.76-11.76A11.77,11.77,0,0,1,1714.48,217.37Zm0-17.51a5.75,5.75,0,1,0,5.75,5.75A5.75,5.75,0,0,0,1714.48,199.87Z"/><path class="cls-1" d="M1636.46,208.62a17.89,17.89,0,1,1,17.89-17.89A17.91,17.91,0,0,1,1636.46,208.62Zm0-29.76a11.87,11.87,0,1,0,11.87,11.87A11.89,11.89,0,0,0,1636.46,178.86Z"/><path d="M1738.28,277H1608.19a3,3,0,0,1-2.88-2.15A31,31,0,0,1,1635,235a30.55,30.55,0,0,1,5.9.59,32.23,32.23,0,0,1,58.69,2.8A26.33,26.33,0,0,1,1712.5,235c16.14,0,29.26,14.91,29.26,33.24a37.94,37.94,0,0,1-.52,6.22A3,3,0,0,1,1738.28,277Zm-127.75-6h125.1c.08-.91.12-1.82.12-2.72,0-15-10.43-27.23-23.25-27.23a20.77,20.77,0,0,0-12.61,4.36,3,3,0,0,1-4.7-1.55c-3.47-11.85-13.75-19.81-25.58-19.81a26.81,26.81,0,0,0-24.28,16.27,3,3,0,0,1-3.56,1.68,25,25,0,0,0-31.24,29Z"/><path d="M1345.36,95.51a3,3,0,0,1-3-3c0-1,.1-24.73,17.55-48.72a3,3,0,0,1,4.86,3.54c-16.23,22.32-16.39,44.93-16.39,45.16a3,3,0,0,1-3,3Z"/><path d="M167.69,474.42H144.33a2.15,2.15,0,0,1-2.1-1.62c-.45-1.8-.94-3.61-1.47-5.38a2.17,2.17,0,0,1,.89-2.39l21.22-14.1a8.2,8.2,0,0,0,2.29-11.36L143.54,407a8.2,8.2,0,0,0-11.36-2.29l-18.6,12.36a2.17,2.17,0,0,1-2.74-.27c-1.27-1.29-2.6-2.58-3.93-3.82a2.16,2.16,0,0,1-.43-2.53L117,389.25a8.2,8.2,0,0,0-3.69-11l-35-17.39a8.2,8.2,0,0,0-11,3.69L58,383.46a2.17,2.17,0,0,1-2.49,1.14c-2.43-.64-4.91-1.22-7.38-1.71a2.17,2.17,0,0,1-1.74-2.13V360.16a8.21,8.21,0,0,0-8.2-8.2H0v6H38.15a2.19,2.19,0,0,1,2.18,2.18v20.59a8.2,8.2,0,0,0,6.57,8c2.35.47,4.71,1,7,1.63a8.21,8.21,0,0,0,9.42-4.27l9.39-18.9a2.18,2.18,0,0,1,2.93-1l35,17.39a2.19,2.19,0,0,1,1,2.93l-10.55,21.22a8.2,8.2,0,0,0,1.73,9.61c1.27,1.18,2.53,2.41,3.74,3.63a8.19,8.19,0,0,0,10.35,1.06l18.6-12.36a2.18,2.18,0,0,1,3,.61l21.62,32.54a2.18,2.18,0,0,1-.61,3L138.32,460a8.12,8.12,0,0,0-3.33,9.11c.5,1.68,1,3.4,1.39,5.11a8.15,8.15,0,0,0,7.94,6.19h23.36a2.19,2.19,0,0,1,2.19,2.18v38.56h6V482.62A8.21,8.21,0,0,0,167.69,474.42Z"/><path d="M0,428.57v6a87.21,87.21,0,0,1,86.19,86.59h6A93.24,93.24,0,0,0,0,428.57Z"/><path d="M112.34,521.18c0-.86,0-1.72,0-2.57a3,3,0,1,0-6,.16c0,.8,0,1.6,0,2.41Z"/><path d="M108.39,510.2a3,3,0,0,1-3-2.61c-.24-1.85-.54-3.71-.88-5.54a3,3,0,1,1,5.91-1.09c.36,1.93.67,3.9.92,5.85a3,3,0,0,1-2.59,3.37Zm-3.59-16.9a3,3,0,0,1-2.88-2.15c-.53-1.78-1.11-3.58-1.74-5.34a3,3,0,1,1,5.67-2c.66,1.86,1.28,3.76,1.84,5.64a3,3,0,0,1-2.88,3.86Zm-6.21-16.13a3,3,0,0,1-2.71-1.71c-.8-1.68-1.66-3.36-2.56-5a3,3,0,1,1,5.28-2.87c.94,1.73,1.85,3.51,2.7,5.28a3,3,0,0,1-2.71,4.3Zm-8.66-15a3,3,0,0,1-2.48-1.3c-1.06-1.53-2.17-3.06-3.3-4.53a3,3,0,0,1,4.77-3.67c1.2,1.56,2.37,3.17,3.49,4.79a3,3,0,0,1-2.47,4.71ZM79,448.78a3,3,0,0,1-2.18-.94c-1.29-1.36-2.62-2.69-4-4A3,3,0,0,1,77,439.52c1.42,1.35,2.83,2.75,4.19,4.18A3,3,0,0,1,79,448.78ZM66.2,437.22a3,3,0,0,1-1.83-.62c-1.48-1.14-3-2.25-4.53-3.3a3,3,0,1,1,3.41-5c1.61,1.11,3.22,2.28,4.78,3.48a3,3,0,0,1-1.83,5.39ZM51.73,427.8a3,3,0,0,1-1.44-.37c-1.63-.89-3.3-1.74-5-2.55a3,3,0,0,1,2.6-5.42c1.78.85,3.55,1.76,5.27,2.69a3,3,0,0,1-1.44,5.65Zm-15.76-7a3,3,0,0,1-1-.17c-1.75-.62-3.54-1.2-5.33-1.74a3,3,0,0,1,1.71-5.76c1.89.56,3.79,1.18,5.63,1.83a3,3,0,0,1-1,5.84Zm-16.68-4.48a3,3,0,0,1-.55-.05c-1.81-.34-3.68-.63-5.54-.88a3,3,0,1,1,.79-6c2,.26,3.93.57,5.84.93a3,3,0,0,1-.54,6Z"/><path d="M2.16,408.46c-.72,0-1.44,0-2.16,0v6l2,0h.08a3,3,0,0,0,.08-6Z"/><path d="M289.29,512.13a3,3,0,0,1-3-3v-3a3,3,0,0,1,6,0v3A3,3,0,0,1,289.29,512.13Z"/><path d="M292.3,521.18v-2.49a3,3,0,0,0-6,0v2.49Z"/><path d="M521.13,474.55a3,3,0,0,1-3-3v-3a3,3,0,1,1,6,0v3A3,3,0,0,1,521.13,474.55Z"/><path d="M521.13,509.91a3,3,0,0,1-3-3V501a3,3,0,1,1,6,0v5.89A3,3,0,0,1,521.13,509.91Zm0-17.68a3,3,0,0,1-3-3v-5.89a3,3,0,1,1,6,0v5.89A3,3,0,0,1,521.13,492.23Z"/><path d="M524.14,521.18v-2.49a3,3,0,0,0-6,0v2.49Z"/><path d="M1107.18,347.15h-3a3,3,0,0,1,0-6h3a3,3,0,1,1,0,6Z"/><path d="M1166.9,347.15h-6.63a3,3,0,0,1,0-6h6.63a3,3,0,0,1,0,6Zm-19.9,0h-6.63a3,3,0,1,1,0-6H1147a3,3,0,0,1,0,6Zm-19.9,0h-6.63a3,3,0,1,1,0-6h6.63a3,3,0,1,1,0,6Z"/><path d="M1183.17,347.15h-3a3,3,0,1,1,0-6h3a3,3,0,0,1,0,6Z"/><path d="M1243.95,367.22h-3a3,3,0,1,1,0-6h3a3,3,0,1,1,0,6Z"/><path d="M1260.41,367.22h-9.24a3,3,0,1,1,0-6h9.24a3,3,0,1,1,0,6Z"/><path d="M1270,367.22h-3a3,3,0,1,1,0-6h3a3,3,0,0,1,0,6Z"/><path d="M1521.69,466.67a3,3,0,0,1-3-3v-3a3,3,0,1,1,6,0v3A3,3,0,0,1,1521.69,466.67Z"/><path d="M1521.69,507.3a3,3,0,0,1-3-3v-6.77a3,3,0,1,1,6,0v6.77A3,3,0,0,1,1521.69,507.3Zm0-20.31a3,3,0,0,1-3-3v-6.77a3,3,0,1,1,6,0V484A3,3,0,0,1,1521.69,487Z"/><path d="M1524.66,521.18a3,3,0,0,0,0-.34v-3a3,3,0,1,0-6,0v3a3,3,0,0,0,0,.34Z"/><path d="M1746.58,417.83h-3a3,3,0,1,1,0-6h3a3,3,0,1,1,0,6Z"/><path d="M1779.16,417.83h-5.43a3,3,0,1,1,0-6h5.43a3,3,0,1,1,0,6Zm-16.29,0h-5.43a3,3,0,1,1,0-6h5.43a3,3,0,0,1,0,6Z"/><path d="M1789.87,411.83a3,3,0,0,0,0,6Z"/><path d="M1746.58,266.07h-3a3,3,0,0,1,0-6h3a3,3,0,0,1,0,6Z"/><path d="M1779.16,266.07h-5.43a3,3,0,1,1,0-6h5.43a3,3,0,0,1,0,6Zm-16.29,0h-5.43a3,3,0,1,1,0-6h5.43a3,3,0,0,1,0,6Z"/><path d="M1789.87,260.08a3,3,0,0,0,0,6Z"/><path d="M1334.38,421.47h-28a3,3,0,0,1,0-6h28a3,3,0,0,1,0,6Z"/><path d="M1334.38,438.86h-28a3,3,0,1,1,0-6h28a3,3,0,0,1,0,6Z"/><path d="M1334.38,456.26h-28a3,3,0,0,1,0-6h28a3,3,0,0,1,0,6Z"/><path d="M1334.38,473.65h-28a3,3,0,0,1,0-6h28a3,3,0,0,1,0,6Z"/><path d="M1334.38,491.05h-28a3,3,0,0,1,0-6h28a3,3,0,0,1,0,6Z"/><path d="M1334.38,508.45h-28a3,3,0,0,1,0-6h28a3,3,0,0,1,0,6Z"/><path d="M1755.44,490.06a3,3,0,0,1-3-3v-8.13h-8.13a3,3,0,1,1,0-6h8.13v-8.13a3,3,0,1,1,6,0v8.13h8.13a3,3,0,0,1,0,6h-8.13v8.13A3,3,0,0,1,1755.44,490.06Z"/><path d="M211.56,367.31a2.85,2.85,0,1,1,.57-.06A2.86,2.86,0,0,1,211.56,367.31Z"/><path d="M327.67,375.7a2.85,2.85,0,1,1,.57-.06A2.86,2.86,0,0,1,327.67,375.7Z"/><path d="M250.56,490.21a2.86,2.86,0,1,1,.57-.06A2.86,2.86,0,0,1,250.56,490.21Z"/><path d="M348.81,411.82a2.85,2.85,0,0,1-2.38-4.43,2.83,2.83,0,0,1,1.81-1.22,2.9,2.9,0,0,1,.57-.06,2.85,2.85,0,0,1,0,5.71Z"/><path d="M656,383.47a3,3,0,1,1,.61-.06A3.05,3.05,0,0,1,656,383.47Z"/><path d="M162.17,196.46a2.85,2.85,0,1,1,.57-.06A2.86,2.86,0,0,1,162.17,196.46Z"/><path d="M1007.45,49.74a2.85,2.85,0,1,1,2.8-3.42,2.86,2.86,0,0,1-2.8,3.42Z"/><path d="M1239.84,158.11a2.85,2.85,0,1,1,.57-.06A2.86,2.86,0,0,1,1239.84,158.11Z"/><path d="M1120.15,310a2.85,2.85,0,1,1,.57-.06A2.86,2.86,0,0,1,1120.15,310Z"/><path d="M1300,334.35a2.85,2.85,0,1,1,.57-.06A2.86,2.86,0,0,1,1300,334.35Z"/><path d="M1372.36,304a2.86,2.86,0,1,1,.57-.06A2.86,2.86,0,0,1,1372.36,304Z"/><path d="M1472.49,478.39a2.85,2.85,0,1,1,.57-.06A2.86,2.86,0,0,1,1472.49,478.39Z"/><path d="M1602.42,213.52a2.85,2.85,0,1,1,.57-.06A2.86,2.86,0,0,1,1602.42,213.52Z"/><circle cx="568.93" cy="127.06" r="5.69"/><path d="M1499,300.81a9.68,9.68,0,1,1,9.68-9.68A9.7,9.7,0,0,1,1499,300.81Zm0-13.36a3.67,3.67,0,1,0,3.67,3.67A3.68,3.68,0,0,0,1499,287.45Z"/><path d="M1516.29,330a16.5,16.5,0,1,1,16.5-16.5A16.51,16.51,0,0,1,1516.29,330Zm0-27a10.48,10.48,0,1,0,10.49,10.49A10.5,10.5,0,0,0,1516.29,303.07Z"/><path d="M1457.31,66.66h-66.74a3,3,0,1,1,0-6h66.74a3,3,0,0,1,0,6Z"/><path d="M1467.86,84.57H1380a3,3,0,0,1,0-6h87.84a3,3,0,1,1,0,6Z"/><path d="M1467.86,102.48H1380a3,3,0,0,1,0-6h87.84a3,3,0,1,1,0,6Z"/><path d="M1457.31,120.39h-66.74a3,3,0,1,1,0-6h66.74a3,3,0,0,1,0,6Z"/><path d="M1667,486.89h-6a3,3,0,0,1,0-6h6a3,3,0,0,1,0,6Zm-18,0h-6a3,3,0,0,1,0-6h6a3,3,0,0,1,0,6Zm-17.44-.6a3,3,0,0,1-3-3v-6a3,3,0,1,1,6,0v6A3,3,0,0,1,1631.53,486.29Zm0-18a3,3,0,0,1-3-3v-6a3,3,0,1,1,6,0v6A3,3,0,0,1,1631.53,468.26Z"/><path d="M1583,448.78H1478.68a3,3,0,1,1,0-6H1583a3,3,0,0,1,0,6Z"/><path d="M693.67,355.68h-4.54a3,3,0,0,1,0-6h4.54a3,3,0,1,1,0,6Zm-16.56,0h-6a3,3,0,0,1,0-6h6a3,3,0,1,1,0,6Zm-18,0h-6a3,3,0,0,1,0-6h6a3,3,0,1,1,0,6Zm-18,0h-6a3,3,0,0,1,0-6h6a3,3,0,1,1,0,6Z"/><path d="M487.1,132h-.49a3,3,0,0,1,0-6h.49a3,3,0,1,1,0,6Zm-12.52,0h-6a3,3,0,1,1,0-6h6a3,3,0,0,1,0,6Zm-18,0h-6a3,3,0,1,1,0-6h6a3,3,0,1,1,0,6Zm-18,0h-6a3,3,0,1,1,0-6h6a3,3,0,0,1,0,6Zm-18,0h-6a3,3,0,0,1,0-6h6a3,3,0,0,1,0,6Zm-18,0h-6a3,3,0,1,1,0-6h6a3,3,0,0,1,0,6Z"/><path d="M46.51,278.71h-6a3,3,0,0,1,0-6h6a3,3,0,1,1,0,6Zm-18,0h-6a3,3,0,0,1,0-6h6a3,3,0,1,1,0,6Zm-18,0h-6a3,3,0,1,1,0-6h6a3,3,0,1,1,0,6Z"/><path d="M1737.25,486.89h-66.33a3,3,0,0,1-3-3c0-18.89,9.8-36.18,25.59-45.12a3,3,0,0,1,3.86.78,23.92,23.92,0,0,0,38,0,3,3,0,0,1,3.86-.78,49.84,49.84,0,0,1,16.8,15.73,3,3,0,0,1-2.22,4.66A16.83,16.83,0,0,0,1740,482.68a3,3,0,0,1-2.75,4.21Zm-63.23-6h59.09a22.88,22.88,0,0,1,15.23-26.7,43.73,43.73,0,0,0-9.92-8.89,29.93,29.93,0,0,1-44.08,0A45.58,45.58,0,0,0,1674,480.88Z"/><path d="M991.76,447.37H968.23V402.84h78.67V440.2a33.21,33.21,0,0,1,6,10.27s0-.06,0-.09V399.83a3,3,0,0,0-3-3H965.23a3,3,0,0,0-3,3v50.55a3,3,0,0,0,3,3h24.32A33,33,0,0,1,991.76,447.37Z"/><path class="cls-1" d="M386.26,186.48q-.49,0-1,0a10.81,10.81,0,0,1-7.38-3.86L311,102.46a10.88,10.88,0,1,1,16.71-14l66.91,80.11a10.88,10.88,0,0,1-8.33,17.86ZM319.33,90.61a4.87,4.87,0,0,0-3.73,8l66.91,80.11h0a4.87,4.87,0,1,0,7.48-6.25L323.07,92.36A4.86,4.86,0,0,0,319.33,90.61Z"/><path d="M1362,376.8h-83.26a10,10,0,0,1-10-10v-5.25a10,10,0,0,1,10-10H1362a10,10,0,0,1,10,10v5.25A10,10,0,0,1,1362,376.8Zm-83.26-19.15a4,4,0,0,0-3.94,3.94v5.25a4,4,0,0,0,3.94,3.94H1362a4,4,0,0,0,3.94-3.94v-5.25a4,4,0,0,0-3.94-3.94Z"/></g></g></svg>