<svg xmlns="http://www.w3.org/2000/svg" xmlns:xlink="http://www.w3.org/1999/xlink" viewBox="0 0 905 1363"><defs><style>.cls-1{fill:url(#radial-gradient);}.cls-2{fill:url(#radial-gradient-2);}.cls-3{fill:#fff;}.cls-21,.cls-22,.cls-4{fill:#e5e5e5;}.cls-5,.cls-6{fill:#999;}.cls-5{opacity:0.9;}.cls-7{fill:#bfbfbf;}.cls-18,.cls-8{fill:#666;}.cls-10,.cls-8{opacity:0.56;}.cls-10,.cls-16,.cls-17,.cls-9{fill:gray;}.cls-11{fill:url(#radial-gradient-3);}.cls-12{fill:#009fdf;}.cls-13,.cls-14,.cls-23,.cls-24,.cls-25,.cls-26,.cls-28,.cls-29,.cls-30,.cls-31,.cls-32{stroke-miterlimit:10;}.cls-13{fill:url(#radial-gradient-4);stroke:url(#radial-gradient-5);}.cls-14{fill:url(#radial-gradient-6);stroke:url(#radial-gradient-7);}.cls-15{fill:url(#radial-gradient-8);}.cls-16{opacity:0.63;}.cls-17{opacity:0.79;}.cls-19{fill:#4d4d4d;}.cls-20{fill:#333;}.cls-21{opacity:0.58;}.cls-22{opacity:0.66;}.cls-23,.cls-24,.cls-25,.cls-26,.cls-28,.cls-29,.cls-30,.cls-31,.cls-32{fill:none;}.cls-23,.cls-30,.cls-31{stroke:#009fdf;}.cls-23,.cls-24,.cls-25,.cls-26,.cls-28,.cls-29,.cls-31,.cls-32{stroke-linecap:round;}.cls-23,.cls-24,.cls-25,.cls-26{stroke-width:2px;}.cls-24{stroke:#43b9dd;}.cls-25{stroke:#d3ba89;}.cls-26{stroke:#85c3d6;}.cls-27{fill:#cba235;}.cls-28{stroke:#666;stroke-width:6px;}.cls-29{stroke:#fff;stroke-width:3px;}.cls-30,.cls-31{stroke-width:5px;}.cls-32{stroke:#bfbfbf;stroke-width:0.5px;opacity:0.7;}</style><radialGradient id="radial-gradient" cx="66.46" cy="53" r="53" gradientTransform="translate(-3.32) scale(1.14 1)" gradientUnits="userSpaceOnUse"><stop offset="0" stop-color="#009fdf"/><stop offset="0.1" stop-color="#10a5e1" stop-opacity="0.94"/><stop offset="0.29" stop-color="#38b4e6" stop-opacity="0.78"/><stop offset="0.55" stop-color="#7bcdee" stop-opacity="0.52"/><stop offset="0.86" stop-color="#d5effa" stop-opacity="0.16"/><stop offset="1" stop-color="#fff" stop-opacity="0"/></radialGradient><radialGradient id="radial-gradient-2" cx="113.08" cy="990.03" r="80.75" gradientTransform="translate(9.88 4.72)" xlink:href="#radial-gradient"/><radialGradient id="radial-gradient-3" cx="124" cy="247" r="124" gradientTransform="matrix(-1, 0, 0, 1, 550, 0)" xlink:href="#radial-gradient"/><radialGradient id="radial-gradient-4" cx="345" cy="679" r="72" gradientTransform="matrix(1, 0, 0, 1, 0, 0)" xlink:href="#radial-gradient"/><radialGradient id="radial-gradient-5" cx="345" cy="679" r="72.5" gradientTransform="matrix(1, 0, 0, 1, 0, 0)" xlink:href="#radial-gradient"/><radialGradient id="radial-gradient-6" cx="530" cy="679" r="72" gradientTransform="matrix(1, 0, 0, 1, 0, 0)" xlink:href="#radial-gradient"/><radialGradient id="radial-gradient-7" cx="530" cy="679" r="72.5" gradientTransform="matrix(1, 0, 0, 1, 0, 0)" xlink:href="#radial-gradient"/><radialGradient id="radial-gradient-8" cx="561.5" cy="1194.5" r="168.5" gradientTransform="matrix(1, 0, 0, 1, 0, 0)" xlink:href="#radial-gradient"/></defs><title>WF_Infographic</title><g id="Layer_2" data-name="Layer 2"><g id="Layer_2-2" data-name="Layer 2"><ellipse class="cls-1" cx="72.33" cy="53" rx="60.33" ry="53"/></g><g id="Layer_3" data-name="Layer 3"><circle class="cls-2" cx="122.96" cy="994.75" r="80.75" transform="translate(-344.43 108.08) rotate(-20.75)"/><rect class="cls-3" x="91.51" y="940.31" width="65" height="65" transform="matrix(1, -0.06, 0.06, 1, -61.4, 9.81)"/><rect class="cls-4" x="93.68" y="942.48" width="60.67" height="60.67" transform="translate(-61.4 9.81) rotate(-3.63)"/><polygon class="cls-5" points="101.13 997.06 155.62 991.98 153.87 964.4 138.62 955.06 100.41 985.71 101.13 997.06"/><circle class="cls-3" cx="107.87" cy="960.88" r="9.44" transform="translate(-60.68 8.77) rotate(-3.63)"/><polygon class="cls-6" points="156.21 1001.16 95.66 1005.01 93.74 974.74 113.7 964.24 155.48 989.81 156.21 1001.16"/><path class="cls-4" d="M56.51,968.14l17,62.75,62.75-17-17-62.75Z"/><polygon class="cls-7" points="100.74 982.41 104.57 996.58 68.87 1006.23 67.95 1002.83 70.44 998.51 82.08 986.09 82.79 974.5 95.7 979.52 100.74 982.41"/><polygon class="cls-8" points="109.34 991.15 68.87 1006.23 65.66 994.33 82.79 974.5 86.56 979.69 109.34 991.15"/><rect class="cls-6" x="70.02" y="991.85" width="62" height="29" transform="translate(-259.08 61.22) rotate(-15.12)"/><polygon class="cls-9" points="78.89 997.3 98.98 994.98 127.42 985.22 125.59 978.47 112.9 976.81 103.86 964.66 91.44 976.53 78.89 997.3"/><polygon class="cls-6" points="98.98 994.98 121.19 988.98 127.42 985.22 124.03 972.67 103.86 964.66 98.15 976.56 98.75 982.62 98.98 994.98"/><polygon class="cls-7" points="110.15 982.64 121.19 988.98 127.68 986.19 121.24 966.18 117.64 968.19 103.86 964.66 103.94 975 110.15 982.64"/><polygon class="cls-9" points="117.64 968.19 120.17 973.72 121.45 967.67 121.24 966.18 117.64 968.19"/><path class="cls-3" d="M56.51,968.14l17,62.75,62.75-17-17-62.75Zm77.05,44.26L75,1028.23,59.16,969.66l58.57-15.83Z"/></g><g id="Layer_1-2" data-name="Layer 1"><path class="cls-4" d="M123.49,958l-19.11,62.13,62.13,19.11,19.11-62.13Z"/><circle class="cls-7" cx="134.44" cy="974.81" r="5.69" transform="translate(-836.82 816.72) rotate(-72.9)"/><polygon class="cls-9" points="140.99 1030.38 105.63 1019.5 111.8 999.43 154.52 986.41 140.99 1030.38"/><polygon class="cls-7" points="173.19 1014.13 165.84 1038.03 105.63 1019.5 107.39 1013.77 114.89 1009.8 140.77 1007.3 154.52 986.41 168.56 1005.38 173.19 1014.13"/><polygon class="cls-10" points="151.51 1033.62 105.63 1019.5 111.8 999.43 154.52 986.41 149.96 1008.03 151.51 1033.62"/><path class="cls-3" d="M123.49,958l-19.11,62.13,62.13,19.11,19.11-62.13Zm41.58,78.53-58-17.84,17.84-58,58,17.84Z"/><circle class="cls-11" cx="426" cy="247" r="124"/><path class="cls-9" d="M451.83,1205H311.31a10,10,0,0,1-9.88-10v-42a3,3,0,0,0-3-3H177v-10H301.43a10,10,0,0,1,10,10h0v42.32a3,3,0,0,0,3,3H451.83Z"/><path class="cls-12" d="M184.72,1108.24V1173a7,7,0,0,1-7,7H68.92a7,7,0,0,1-7-7v-64.76a7,7,0,0,1,2.79-5.57l54.93-41.2a7,7,0,0,1,8.41,0L182,1102.7A7,7,0,0,1,184.72,1108.24Z"/><path class="cls-6" d="M184.9,1179.78c-18.75-.05-44.55-23.31-61.32-36,15.32-11.46,41.64-24.63,56.95-36.08-2-1.41-3.64-2.62-5.32-3.82q-24.89-17.68-49.77-35.37c-1.15-.82-2-1.41-3.53-.33q-27,19.31-54.06,38.47c-.38.27-.74.59-1.37,1.09,15.23,11.39,41.79,24.57,57.12,36-16.76,12.67-37.32,34.83-61.64,36.07,0-1.23,0-2,0-2.75q0-35.48,0-71a3.71,3.71,0,0,1,1.62-3.41q29.1-21.71,58.09-43.56c1.4-1.06,2.24-1.09,3.66,0,19.32,14.57,38.71,29.06,58,43.63a4.21,4.21,0,0,1,1.6,2.84c.09,24.13.07,48.27.07,72.4C185,1178.49,184.95,1178.94,184.9,1179.78Z"/><path class="cls-9" d="M62,1180l58.56-41a5.82,5.82,0,0,1,6.72,0l57.48,41Z"/><circle class="cls-13" cx="345" cy="679" r="72"/><circle class="cls-14" cx="530" cy="679" r="72"/><circle class="cls-15" cx="561.5" cy="1194.5" r="168.5"/><rect class="cls-4" x="396.07" y="192" width="38" height="38"/><rect class="cls-9" x="180.07" y="107" width="38" height="38"/><rect class="cls-7" x="209.07" y="86" width="38" height="38"/><rect class="cls-3" x="444.07" y="153" width="44" height="44"/><rect class="cls-16" x="445.54" y="154.47" width="41.07" height="41.07"/><path class="cls-9" d="M464.15,158.62s-1.57,3.1-6.81,3.16a9.05,9.05,0,0,1-6.49-3c-.07-.07.39,6.31.67,8.24a1.38,1.38,0,0,0,.48.55.39.39,0,0,0,.14.16,11.2,11.2,0,0,0,4.73,1.47,12.62,12.62,0,0,0,4.78-.59c1.1-.42,2.56-.88,2.59-2.12C464.25,166,464.35,160.08,464.15,158.62Z"/><ellipse class="cls-3" cx="457.52" cy="158.82" rx="6.64" ry="3.11"/><ellipse class="cls-4" cx="457.52" cy="158.61" rx="3.75" ry="1.76"/><path class="cls-7" d="M457.84,157.17a3.94,3.94,0,0,0-.88,0c-.16,0-.17.18-.12.33.13.41.47,1,.61,1,.58.1.78-.1.87-.29l.39-.68C458.71,157.36,457.92,157.17,457.84,157.17Z"/><path class="cls-16" d="M457.15,158.74a7.54,7.54,0,0,1-.86-.89h0a.3.3,0,0,0-.38-.2c-.37.11-1.33.46-1.25.76a3.43,3.43,0,0,0,1.45,1.16,2.46,2.46,0,0,0,.92-.17A.36.36,0,0,0,457.15,158.74Z"/><path class="cls-17" d="M460.15,158.21c-.11-.33-1.1-.54-1.21-.4s-1,1.83-.82,1.75C458.64,159.33,460.46,159.08,460.15,158.21Z"/><path class="cls-9" d="M474.31,165.39s-1.57,3.1-6.81,3.16a9.05,9.05,0,0,1-6.49-3c-.07-.07.39,6.31.67,8.24a1.38,1.38,0,0,0,.48.55.39.39,0,0,0,.14.16A11.2,11.2,0,0,0,467,176a12.62,12.62,0,0,0,4.78-.59c1.1-.42,2.56-.88,2.59-2.12C474.4,172.77,474.5,166.85,474.31,165.39Z"/><ellipse class="cls-3" cx="467.67" cy="165.59" rx="6.64" ry="3.11"/><ellipse class="cls-4" cx="467.67" cy="165.38" rx="3.75" ry="1.76"/><path class="cls-7" d="M468,163.93a3.94,3.94,0,0,0-.88,0c-.16,0-.17.18-.12.33.13.41.47,1,.61,1,.58.1.78-.1.87-.29l.39-.68C468.87,164.13,468.07,163.94,468,163.93Z"/><path class="cls-16" d="M467.31,165.51a7.54,7.54,0,0,1-.86-.89h0a.3.3,0,0,0-.38-.2c-.37.11-1.33.46-1.25.76a3.43,3.43,0,0,0,1.45,1.16,2.46,2.46,0,0,0,.92-.17A.36.36,0,0,0,467.31,165.51Z"/><path class="cls-17" d="M470.31,165c-.11-.33-1.1-.54-1.21-.4s-1,1.83-.82,1.75C468.79,166.1,470.61,165.85,470.31,165Z"/><path class="cls-9" d="M485.14,172.16s-1.57,3.1-6.81,3.16a9.05,9.05,0,0,1-6.49-3c-.07-.07.39,6.31.67,8.24a1.38,1.38,0,0,0,.48.55.39.39,0,0,0,.14.16,11.2,11.2,0,0,0,4.73,1.47,12.62,12.62,0,0,0,4.78-.59c1.1-.42,2.56-.88,2.59-2.12C485.24,179.54,485.33,173.62,485.14,172.16Z"/><ellipse class="cls-3" cx="478.5" cy="172.36" rx="6.64" ry="3.11"/><ellipse class="cls-4" cx="478.5" cy="172.15" rx="3.75" ry="1.76"/><path class="cls-7" d="M478.83,170.7a3.94,3.94,0,0,0-.88,0c-.16,0-.17.18-.12.33.13.41.47,1,.61,1,.58.1.78-.1.87-.29l.39-.68C479.7,170.9,478.9,170.71,478.83,170.7Z"/><path class="cls-16" d="M478.14,172.28a7.54,7.54,0,0,1-.86-.89h0a.3.3,0,0,0-.38-.2c-.37.11-1.33.46-1.25.76a3.43,3.43,0,0,0,1.45,1.16,2.46,2.46,0,0,0,.92-.17A.36.36,0,0,0,478.14,172.28Z"/><path class="cls-17" d="M481.14,171.74c-.11-.33-1.1-.54-1.21-.4s-1,1.83-.82,1.75C479.62,172.87,481.44,172.62,481.14,171.74Z"/><path class="cls-9" d="M460.09,168.1s-1.57,3.1-6.81,3.16a9.05,9.05,0,0,1-6.49-3c-.07-.07.39,6.31.67,8.24a1.38,1.38,0,0,0,.48.55.39.39,0,0,0,.14.16,11.2,11.2,0,0,0,4.73,1.47,12.62,12.62,0,0,0,4.78-.59c1.1-.42,2.56-.88,2.59-2.12C460.19,175.48,460.29,169.56,460.09,168.1Z"/><ellipse class="cls-3" cx="453.46" cy="168.3" rx="6.64" ry="3.11"/><ellipse class="cls-4" cx="453.46" cy="168.09" rx="3.75" ry="1.76"/><path class="cls-7" d="M453.78,166.64a3.94,3.94,0,0,0-.88,0c-.16,0-.17.18-.12.33.13.41.47,1,.61,1,.58.1.78-.1.87-.29l.39-.68C454.65,166.84,453.86,166.65,453.78,166.64Z"/><path class="cls-16" d="M453.09,168.22a7.54,7.54,0,0,1-.86-.89h0a.3.3,0,0,0-.38-.2c-.37.11-1.33.46-1.25.76a3.43,3.43,0,0,0,1.45,1.16,2.46,2.46,0,0,0,.92-.17A.36.36,0,0,0,453.09,168.22Z"/><path class="cls-17" d="M456.09,167.68c-.11-.33-1.1-.54-1.21-.4s-1,1.83-.82,1.75C454.58,168.81,456.39,168.56,456.09,167.68Z"/><path class="cls-9" d="M470.25,174.87s-1.57,3.1-6.81,3.16a9.05,9.05,0,0,1-6.49-3c-.07-.07.39,6.31.67,8.24a1.38,1.38,0,0,0,.48.55.39.39,0,0,0,.14.16,11.2,11.2,0,0,0,4.73,1.47,12.62,12.62,0,0,0,4.78-.59c1.1-.42,2.56-.88,2.59-2.12C470.34,182.25,470.44,176.33,470.25,174.87Z"/><ellipse class="cls-3" cx="463.61" cy="175.07" rx="6.64" ry="3.11"/><ellipse class="cls-4" cx="463.61" cy="174.85" rx="3.75" ry="1.76"/><path class="cls-7" d="M463.93,173.41a3.94,3.94,0,0,0-.88,0c-.16,0-.17.18-.12.33.13.41.47,1,.61,1,.58.1.78-.1.87-.29l.39-.68C464.81,173.61,464,173.42,463.93,173.41Z"/><path class="cls-16" d="M463.25,175a7.54,7.54,0,0,1-.86-.89h0a.3.3,0,0,0-.38-.2c-.37.11-1.33.46-1.25.76a3.43,3.43,0,0,0,1.45,1.16,2.46,2.46,0,0,0,.92-.17A.36.36,0,0,0,463.25,175Z"/><path class="cls-17" d="M466.24,174.45c-.11-.33-1.1-.54-1.21-.4s-1,1.83-.82,1.75C464.73,175.58,466.55,175.33,466.24,174.45Z"/><path class="cls-9" d="M481.08,181.64s-1.57,3.1-6.81,3.16a9.05,9.05,0,0,1-6.49-3c-.07-.07.39,6.31.67,8.24a1.38,1.38,0,0,0,.48.55.39.39,0,0,0,.14.16,11.2,11.2,0,0,0,4.73,1.47,12.62,12.62,0,0,0,4.78-.59c1.1-.42,2.56-.88,2.59-2.12C481.17,189,481.27,183.09,481.08,181.64Z"/><ellipse class="cls-3" cx="474.44" cy="181.84" rx="6.64" ry="3.11"/><ellipse class="cls-4" cx="474.44" cy="181.62" rx="3.75" ry="1.76"/><path class="cls-7" d="M474.76,180.18a3.94,3.94,0,0,0-.88,0c-.16,0-.17.18-.12.33.13.41.47,1,.61,1,.58.1.78-.1.87-.29l.39-.68C475.64,180.37,474.84,180.19,474.76,180.18Z"/><path class="cls-16" d="M474.08,181.76a7.54,7.54,0,0,1-.86-.89h0a.3.3,0,0,0-.38-.2c-.37.11-1.33.46-1.25.76a3.43,3.43,0,0,0,1.45,1.16,2.46,2.46,0,0,0,.92-.17A.36.36,0,0,0,474.08,181.76Z"/><path class="cls-17" d="M477.08,181.22c-.11-.33-1.1-.54-1.21-.4s-1,1.83-.82,1.75C475.56,182.35,477.38,182.1,477.08,181.22Z"/><rect class="cls-6" x="338.07" y="197" width="38" height="38"/><rect class="cls-4" x="454.07" y="259" width="38" height="38"/><rect class="cls-4" x="462.07" y="206" width="38" height="38"/><rect class="cls-4" x="157.07" y="78" width="38" height="38"/><rect class="cls-9" x="257.07" y="67" width="38" height="38"/><rect class="cls-4" x="233.07" y="115" width="38" height="38"/><rect class="cls-9" x="276.07" y="139" width="38" height="38"/><rect class="cls-4" x="369.07" y="143" width="38" height="38"/><rect class="cls-18" x="383.07" y="243" width="38" height="38"/><rect class="cls-3" x="406.07" y="224" width="43" height="43"/><rect class="cls-4" x="407.5" y="225.43" width="40.13" height="40.13"/><polygon class="cls-5" points="411.44 260.55 447.64 259.48 447.64 241.2 437.96 234.39 411.44 253.03 411.44 260.55"/><circle class="cls-3" cx="417.41" cy="236.94" r="6.24"/><polygon class="cls-6" points="447.64 265.57 407.5 265.57 407.5 245.5 421.12 239.41 447.64 258.04 447.64 265.57"/><rect class="cls-18" x="396.07" y="120" width="38" height="38"/><rect class="cls-18" x="228.07" y="147" width="38" height="38"/><path class="cls-4" d="M304.07,124v45h45V124Z"/><circle class="cls-7" cx="314.73" cy="132.87" r="3.94"/><polygon class="cls-9" points="330.38 168.31 304.76 168.31 304.76 153.77 330.38 136.46 330.38 168.31"/><polygon class="cls-7" points="348.38 151 348.38 168.31 304.76 168.31 304.76 164.15 308.92 160 325.53 153.08 330.38 136.46 343.53 146.15 348.38 151"/><polygon class="cls-10" points="337.99 168.31 304.76 168.31 304.76 153.77 330.38 136.46 331.76 151.69 337.99 168.31"/><path class="cls-3" d="M304.07,124v45h45V124Zm43.5,43.5h-42v-42h42Z"/><rect class="cls-4" x="276.07" y="192" width="38" height="38"/><rect class="cls-6" x="350.07" y="263" width="38" height="25"/><rect class="cls-6" x="473.07" y="269" width="38" height="25"/><path class="cls-9" d="M420.13,365.86s-36-62.07-85.09-86.1a.84.84,0,0,1,.37-1.6H534.08a.84.84,0,0,1,.37,1.6c-49.07,24-85.09,86.1-85.09,86.1Z"/><path class="cls-9" d="M448.36,365.86V421a4,4,0,0,0,4,4H793.93v0c22.33.4,28.44,14.18,28.44,36.68V515H793.13L793,460.53a4.54,4.54,0,0,0-4.54-4.53H447.93c-22.79-.18-28.8-14.14-28.8-36.83v-53.3Z"/><path class="cls-9" d="M797.13,723.86V779a4,4,0,0,1-4,4H132.56v0c-22.33.4-28.44,14.18-28.44,36.68V873h29.23l.12-54.47A4.54,4.54,0,0,1,138,814H797.56c22.79-.18,28.8-14.14,28.8-36.83v-53.3Z"/><path class="cls-9" d="M110.84,850.15s-19.48,33.57-46,46.57a.46.46,0,0,0,.2.87H172.47a.46.46,0,0,0,.2-.87c-26.54-13-46-46.57-46-46.57Z"/><rect class="cls-4" y="52.36" width="142" height="85.65" rx="13.54" ry="13.54" transform="translate(142 190.37) rotate(-180)"/><path class="cls-7" d="M40.57,52.36h60.86L90,45.28a1.78,1.78,0,0,0-.93-.25H52.93a1.78,1.78,0,0,0-.93.25Z"/><path class="cls-7" d="M53,27H89a0,0,0,0,1,0,0V42.16A2.87,2.87,0,0,1,86.16,45H55.84A2.87,2.87,0,0,1,53,42.16V27A0,0,0,0,1,53,27Z" transform="translate(142 72.03) rotate(-180)"/><rect class="cls-19" x="55.79" y="29.82" width="30.43" height="13.52" rx="2.09" ry="2.09" transform="translate(142 73.16) rotate(-180)"/><rect class="cls-7" y="52.36" width="142" height="85.65" rx="13.54" ry="13.54" transform="translate(142 190.37) rotate(-180)"/><rect class="cls-6" y="67.26" width="142" height="58.04" transform="translate(142 192.56) rotate(-180)"/><circle class="cls-6" cx="70.72" cy="94.9" r="39.16"/><circle class="cls-3" cx="76.35" cy="73.49" r="1.41"/><path class="cls-6" d="M119.71,47.85h10.14a0,0,0,0,1,0,0v1.63A2.87,2.87,0,0,1,127,52.36h-4.39a2.87,2.87,0,0,1-2.87-2.87V47.85a0,0,0,0,1,0,0Z" transform="translate(249.57 100.21) rotate(-180)"/><path class="cls-6" d="M105.63,47.85h10.14a0,0,0,0,1,0,0v1.63a2.87,2.87,0,0,1-2.87,2.87H108.5a2.87,2.87,0,0,1-2.87-2.87V47.85A0,0,0,0,1,105.63,47.85Z" transform="translate(221.4 100.21) rotate(-180)"/><path class="cls-6" d="M15.21,47.85H31.56a0,0,0,0,1,0,0v1.63a2.87,2.87,0,0,1-2.87,2.87H18.09a2.87,2.87,0,0,1-2.87-2.87V47.85a0,0,0,0,1,0,0Z" transform="translate(46.77 100.21) rotate(-180)"/><path class="cls-6" d="M450,1246H669.5a0,0,0,0,1,0,0v26a6.14,6.14,0,0,1-6.14,6.14H456.14A6.14,6.14,0,0,1,450,1272v-26A0,0,0,0,1,450,1246Z"/><polygon class="cls-9" points="596.22 1301.25 510.97 1301.25 524.25 1278.11 583.37 1278.11 596.22 1301.25"/><path class="cls-6" d="M458.5,1133H661a8.5,8.5,0,0,1,8.5,8.5v104.66a0,0,0,0,1,0,0H450a0,0,0,0,1,0,0V1141.5A8.5,8.5,0,0,1,458.5,1133Z"/><rect class="cls-6" x="508.15" y="1294.51" width="90.74" height="6.74" rx="3.37" ry="3.37"/><polygon class="cls-18" points="583.3 1278.06 585.49 1281.92 522.06 1281.92 524.27 1278.06 583.3 1278.06"/><path class="cls-20" d="M463.5,1140H656.3a8.5,8.5,0,0,1,8.5,8.5v104.66a0,0,0,0,1,0,0H455a0,0,0,0,1,0,0V1148.5A8.5,8.5,0,0,1,463.5,1140Z"/><circle class="cls-7" cx="560.5" cy="1263.5" r="2.5"/><path class="cls-4" d="M582,1175v65h65v-65Z"/><circle class="cls-7" cx="597.4" cy="1187.81" r="5.69"/><polygon class="cls-9" points="620 1239 583 1239 583 1218 620 1193 620 1239"/><polygon class="cls-7" points="646 1214 646 1239 583 1239 583 1233 589 1227 613 1217 620 1193 639 1207 646 1214"/><polygon class="cls-10" points="631 1239 583 1239 583 1218 620 1193 622 1215 631 1239"/><path class="cls-3" d="M582,1175v65h65v-65Zm62.83,62.83H584.17v-60.67h60.67Z"/><rect class="cls-20" x="244" y="681" width="131" height="170"/><rect class="cls-20" x="400" y="686" width="231" height="107"/><rect class="cls-21" x="451.9" y="759.16" width="17.31" height="17.31" transform="translate(921.11 1535.64) rotate(-180)"/><rect class="cls-7" x="417.27" y="741.85" width="17.31" height="17.31" transform="translate(851.86 1501.02) rotate(-180)"/><rect class="cls-7" x="469.21" y="759.16" width="17.31" height="17.31" transform="translate(955.73 1535.64) rotate(-180)"/><rect class="cls-4" x="486.52" y="741.85" width="17.31" height="17.31" transform="translate(990.36 1501.02) rotate(-180)"/><rect class="cls-9" x="417.27" y="759.16" width="17.31" height="17.31" transform="translate(851.86 1535.64) rotate(-180)"/><rect class="cls-4" x="399.93" y="741.85" width="17.31" height="17.31" transform="translate(817.17 1501.02) rotate(-180)"/><rect class="cls-9" x="434.59" y="741.85" width="17.31" height="17.31" transform="translate(886.49 1501.02) rotate(-180)"/><rect class="cls-3" x="451.9" y="741.85" width="17.31" height="17.31" transform="translate(921.11 1501.02) rotate(-180)"/><rect class="cls-18" x="469.21" y="741.85" width="17.31" height="17.31" transform="translate(955.73 1501.02) rotate(-180)"/><rect class="cls-18" x="399.96" y="759.16" width="17.31" height="17.31" transform="translate(817.24 1535.64) rotate(-180)"/><rect class="cls-4" x="434.59" y="759.16" width="17.31" height="17.31" transform="translate(886.49 1535.64) rotate(-180)"/><rect class="cls-3" x="486.52" y="759.16" width="17.31" height="17.31" transform="translate(990.36 1535.64) rotate(-180)"/><rect class="cls-7" x="434.55" y="724.54" width="17.31" height="17.31"/><rect class="cls-7" x="469.18" y="707.23" width="17.31" height="17.31"/><rect class="cls-6" x="417.24" y="724.54" width="17.31" height="17.31"/><rect class="cls-4" x="399.93" y="707.23" width="17.31" height="17.31"/><rect class="cls-9" x="469.18" y="724.54" width="17.31" height="17.31"/><rect class="cls-3" x="486.52" y="707.23" width="17.31" height="17.31"/><rect class="cls-9" x="451.87" y="707.23" width="17.31" height="17.31"/><rect class="cls-4" x="434.55" y="707.23" width="17.31" height="17.31"/><rect class="cls-18" x="417.24" y="707.23" width="17.31" height="17.31"/><rect class="cls-18" x="486.49" y="724.54" width="17.31" height="17.31"/><rect class="cls-4" x="451.87" y="724.54" width="17.31" height="17.31"/><rect class="cls-7" x="399.93" y="724.54" width="17.31" height="17.31"/><rect class="cls-21" x="521.15" y="759.16" width="17.31" height="17.31" transform="translate(1059.61 1535.64) rotate(-180)"/><rect class="cls-9" x="503.84" y="741.85" width="17.31" height="17.31" transform="translate(1024.98 1501.02) rotate(-180)"/><rect class="cls-4" x="503.84" y="759.16" width="17.31" height="17.31" transform="translate(1024.98 1535.64) rotate(-180)"/><rect class="cls-7" x="503.8" y="724.54" width="17.31" height="17.31"/><rect class="cls-9" x="521.12" y="707.23" width="17.31" height="17.31"/><rect class="cls-4" x="503.8" y="707.23" width="17.31" height="17.31"/><rect class="cls-4" x="521.12" y="724.54" width="17.31" height="17.31"/><rect class="cls-18" x="521.15" y="741.85" width="17.31" height="17.31" transform="translate(1059.61 1501.02) rotate(-180)"/><rect class="cls-7" x="555.76" y="741.84" width="17.31" height="17.31" transform="translate(1314.91 186.08) rotate(90)"/><rect class="cls-4" x="555.76" y="759.18" width="17.31" height="17.31" transform="translate(1332.25 203.42) rotate(90)"/><rect class="cls-9" x="555.76" y="724.52" width="17.31" height="17.31" transform="translate(1297.59 168.77) rotate(90)"/><rect class="cls-22" x="555.76" y="707.21" width="17.31" height="17.31" transform="translate(1280.28 151.45) rotate(90)"/><rect class="cls-21" x="538.44" y="724.56" width="17.31" height="17.31" transform="translate(-186.11 1280.31) rotate(-90)"/><rect class="cls-9" x="538.44" y="741.87" width="17.31" height="17.31" transform="translate(-203.42 1297.63) rotate(-90)"/><rect class="cls-4" x="538.44" y="707.24" width="17.31" height="17.31" transform="translate(-168.8 1263) rotate(-90)"/><rect class="cls-7" x="538.44" y="759.18" width="17.31" height="17.31" transform="translate(-220.74 1314.94) rotate(-90)"/><rect class="cls-7" x="590.28" y="741.85" width="17.31" height="17.31" transform="translate(1197.88 1501.02) rotate(-180)"/><rect class="cls-9" x="590.28" y="759.16" width="17.31" height="17.31" transform="translate(1197.88 1535.64) rotate(-180)"/><rect class="cls-4" x="572.94" y="741.85" width="17.31" height="17.31" transform="translate(1163.19 1501.02) rotate(-180)"/><rect class="cls-18" x="572.97" y="759.16" width="17.31" height="17.31" transform="translate(1163.25 1535.64) rotate(-180)"/><rect class="cls-6" x="590.25" y="724.54" width="17.31" height="17.31"/><rect class="cls-4" x="572.94" y="707.23" width="17.31" height="17.31"/><rect class="cls-18" x="590.25" y="707.23" width="17.31" height="17.31"/><rect class="cls-3" x="572.94" y="724.54" width="17.31" height="17.31"/><rect class="cls-4" x="607.69" y="741.85" width="17.31" height="17.31" transform="translate(1232.69 1501.02) rotate(-180)"/><rect class="cls-3" x="607.69" y="759.16" width="17.31" height="17.31" transform="translate(1232.69 1535.64) rotate(-180)"/><rect class="cls-4" x="607.69" y="707.23" width="17.31" height="17.31"/><rect class="cls-18" x="607.66" y="724.54" width="17.31" height="17.31"/><line class="cls-23" x1="281" y1="800" x2="299" y2="805"/><line class="cls-23" x1="263" y1="807" x2="281" y2="800"/><line class="cls-23" x1="250" y1="807" x2="263" y2="807"/><line class="cls-24" x1="281" y1="794" x2="299" y2="768"/><line class="cls-24" x1="263" y1="801" x2="281" y2="794"/><line class="cls-24" x1="251" y1="752" x2="263" y2="801"/><path class="cls-25" d="M354,827"/><path class="cls-25" d="M363,832"/><path class="cls-25" d="M354,827"/><path class="cls-25" d="M335,793"/><line class="cls-26" x1="299" y1="738" x2="317" y2="787"/><line class="cls-26" x1="281" y1="751" x2="299" y2="738"/><line class="cls-26" x1="263" y1="734" x2="281" y2="751"/><line class="cls-26" x1="243" y1="734" x2="263" y2="734"/><path class="cls-12" d="M307.4,661.28c.6-10.29-1.73-20.71-.1-30.94,1.47-9.24,7.79-19.82,18.55-18.84,5.79.53,12.17,6.69,11.43,13-.89,7.49-7,4.64-8.06.64a19.36,19.36,0,0,1,20.23-24.32c9.69.88,19.28,10.76,16.47,20.93-1.26,4.55-7.45,8.67-10.61,3.15-1.28-2.23-.94-5.18-.16-7.48,1.69-5,5.91-10.32,11-12.05,14.26-4.86,13.91,14.05,14.16,22.63.3,10.39.27,20.78.24,31.18a1.5,1.5,0,0,0,3,0c0-14.35,1-29.39-.93-43.64-1.35-9.74-9-17.07-19-12.34-7.57,3.57-16.38,16.34-10.08,24.36,6.48,8.24,15.34-.38,15.82-8.18.61-9.87-7.28-18.87-16.65-21.06a22.43,22.43,0,0,0-24,10.23c-3.21,5.44-6.35,22.41,3.25,23.81,3.75.55,7.2-2.36,8.06-5.87,1.12-4.55-1.25-9.79-4.25-13.12-8-8.86-21.2-4.48-27,4.44-8.4,12.89-3.52,29.21-4.35,43.5-.11,1.93,2.89,1.92,3,0Z"/><path class="cls-27" d="M490.25,661a1.5,1.5,0,0,0,0-3,1.5,1.5,0,0,0,0,3Z"/><path class="cls-12" d="M572.6,661.28c-.81-13.9,3.75-29.43-3.59-42.26-5-8.69-16.07-13.66-25.77-10-6,2.25-9,9.86-8,16,1.46,8.36,12.55,11,16.31,2.77,4.56-10-3.3-23-12.23-27.56a22.1,22.1,0,0,0-28,7c-4.56,6.5-6.07,22,4.83,23.58,4.29.63,8-2.78,9.08-6.71,1.32-4.88-.56-10.37-4-13.95-9.17-9.51-22.59-1.05-26.07,9.51-2.12,6.43-1.46,14.36-1.62,21.1-.15,6.14-.08,12.28-.06,18.41a1.5,1.5,0,0,0,3,0c0-6-.08-11.91.05-17.87.16-7.25-.9-16.94,2.64-23.38,1.81-3.3,5.69-7.36,9.35-8.59,5.7-1.91,11.16,2.08,13.23,7.21,1,2.43,1.43,5.8.06,8.26-2.15,3.85-6.84,3.38-9.15.14-3-4.2-2.3-10.08.12-14.4,10.08-18,37.68-8.12,37.07,11.58-.06,1.94-.5,4.69-2,6.09-2.37,2.17-6.89,1.42-8.66-1.35-1.44-2.25-1-4.83-.48-7.27,1.38-6.49,6.18-9.08,12.71-8.59,24.94,1.87,17.3,34.07,18.25,50.3.11,1.92,3.11,1.93,3,0Z"/><line class="cls-23" x1="373" y1="780" x2="354" y2="776"/><line class="cls-23" x1="335" y1="785" x2="354" y2="776"/><line class="cls-23" x1="317" y1="771" x2="335" y2="785"/><line class="cls-23" x1="299" y1="805" x2="317" y2="771"/><line class="cls-24" x1="369" y1="807" x2="354" y2="797"/><line class="cls-24" x1="335" y1="728" x2="354" y2="797"/><line class="cls-24" x1="317" y1="759" x2="335" y2="728"/><line class="cls-24" x1="299" y1="768" x2="317" y2="759"/><line class="cls-26" x1="317" y1="787" x2="335" y2="779"/><line class="cls-26" x1="354" y1="758" x2="335" y2="779"/><line class="cls-26" x1="375" y1="768" x2="354" y2="758"/><path class="cls-9" d="M219.93,715.92V819.08A47.92,47.92,0,0,0,267.85,867H598a47.92,47.92,0,0,0,47.92-47.92V715.92A47.92,47.92,0,0,0,598,668H267.85A47.92,47.92,0,0,0,219.93,715.92Zm180-11.45A15.46,15.46,0,0,1,415.39,689H609.24a15.46,15.46,0,0,1,15.46,15.46v74.07A15.46,15.46,0,0,1,609.24,794H415.39a15.46,15.46,0,0,1-15.46-15.46Zm-144.07-4.13A10.33,10.33,0,0,1,266.19,690h85.5A10.33,10.33,0,0,1,362,700.33V825.15a10.33,10.33,0,0,1-10.33,10.33h-85.5a10.33,10.33,0,0,1-10.33-10.33Z"/><rect class="cls-6" x="395.86" y="805" width="232" height="55" rx="27.5" ry="27.5" transform="translate(1023.72 1665) rotate(-180)"/><circle class="cls-4" cx="600.86" cy="833" r="18"/><circle class="cls-4" cx="421.86" cy="832" r="18"/><path class="cls-18" d="M539.86,649h44a0,0,0,0,1,0,0v13.33a5.67,5.67,0,0,1-5.67,5.67H545.53a5.67,5.67,0,0,1-5.67-5.67V649a0,0,0,0,1,0,0Z" transform="translate(1123.72 1317) rotate(-180)"/><path class="cls-6" d="M394.86,703.71V779a19,19,0,0,0,19,19h198a19,19,0,0,0,19-19V703.71a19,19,0,0,0-19-19h-198A19,19,0,0,0,394.86,703.71Zm6,.13a14,14,0,0,1,14-14h196a14,14,0,0,1,14,14V779a14,14,0,0,1-14,14h-196a14,14,0,0,1-14-14Z"/><path class="cls-6" d="M249.86,698.15v129.7a11.85,11.85,0,0,0,11.85,11.85h93.81a11.85,11.85,0,0,0,11.85-11.85V698.15a11.85,11.85,0,0,0-11.85-11.85H261.71A11.85,11.85,0,0,0,249.86,698.15Zm5.9,4.92a11.85,11.85,0,0,1,11.85-11.85h82.5A11.85,11.85,0,0,1,362,703.07V822.93a11.85,11.85,0,0,1-11.85,11.85h-82.5a11.85,11.85,0,0,1-11.85-11.85Z"/><path class="cls-18" d="M475.86,649h44a0,0,0,0,1,0,0v13.33a5.67,5.67,0,0,1-5.67,5.67H481.53a5.67,5.67,0,0,1-5.67-5.67V649a0,0,0,0,1,0,0Z" transform="translate(995.72 1317) rotate(-180)"/><path class="cls-18" d="M352.86,649h44a0,0,0,0,1,0,0v13.33a5.67,5.67,0,0,1-5.67,5.67H358.53a5.67,5.67,0,0,1-5.67-5.67V649A0,0,0,0,1,352.86,649Z" transform="translate(749.72 1317) rotate(-180)"/><path class="cls-18" d="M288.86,649h44a0,0,0,0,1,0,0v13.33a5.67,5.67,0,0,1-5.67,5.67H294.53a5.67,5.67,0,0,1-5.67-5.67V649a0,0,0,0,1,0,0Z" transform="translate(621.72 1317) rotate(-180)"/><circle class="cls-3" cx="428.5" cy="826.5" r="6.5"/><circle class="cls-3" cx="607.5" cy="826.5" r="6.5"/><path class="cls-3" d="M598.8,695.95c9.4-.11,20.55,2,20,13.88-.08,1.93,2.92,1.93,3,0A15.55,15.55,0,0,0,616,696.71c-4.87-3.77-11.33-3.83-17.21-3.76a1.5,1.5,0,0,0,0,3Z"/><path class="cls-3" d="M620.33,717.5a1.5,1.5,0,0,0,0-3,1.5,1.5,0,0,0,0,3Z"/><path class="cls-3" d="M340.42,696.88c5.91-.14,12.14,1,13.63,7.68.42,1.88,3.32,1.09,2.89-.8-1.79-8-9.27-10-16.52-9.88-1.93,0-1.93,3,0,3Z"/><path class="cls-3" d="M356.14,711a1.5,1.5,0,0,0,0-3,1.5,1.5,0,0,0,0,3Z"/><rect class="cls-18" x="418" y="365" width="34" height="9" rx="2.31" ry="2.31"/><path class="cls-18" d="M794,476h30a6,6,0,0,1,6,6v4a0,0,0,0,1,0,0H788a0,0,0,0,1,0,0v-4A6,6,0,0,1,794,476Z"/><path class="cls-18" d="M790,745h43a0,0,0,0,1,0,0v4a6,6,0,0,1-6,6H796a6,6,0,0,1-6-6v-4A0,0,0,0,1,790,745Z"/><path class="cls-18" d="M629.5,793.5h43a0,0,0,0,1,0,0v4a6,6,0,0,1-6,6h-31a6,6,0,0,1-6-6v-4A0,0,0,0,1,629.5,793.5Z" transform="translate(-147.5 1449.5) rotate(-90)"/><path class="cls-18" d="M199.49,793.5h31a6,6,0,0,1,6,6v4a0,0,0,0,1,0,0h-43a0,0,0,0,1,0,0v-4A6,6,0,0,1,199.49,793.5Z" transform="translate(-583.5 1013.5) rotate(-90)"/><line class="cls-28" x1="335" y1="280" x2="534" y2="280"/><line class="cls-28" x1="65" y1="897" x2="172" y2="897"/><rect class="cls-18" x="102" y="852" width="33" height="9" rx="2.31" ry="2.31"/><rect class="cls-12" y="119" width="142" height="3"/><rect class="cls-12" y="114" width="142" height="3"/><rect class="cls-12" y="76" width="142" height="3"/><rect class="cls-12" y="71" width="142" height="3"/><circle class="cls-6" cx="129.79" cy="67.26" r="5.63"/><circle class="cls-4" cx="129.77" cy="67.25" r="4.21"/><circle class="cls-6" cx="116.17" cy="67.26" r="5.63"/><circle class="cls-4" cx="116.15" cy="67.25" r="4.21"/><circle class="cls-12" cx="71" cy="95.18" r="42.83"/><circle class="cls-19" cx="71" cy="95.18" r="36.63"/><circle class="cls-20" cx="71" cy="95.18" r="28.17"/><circle class="cls-3" cx="62.55" cy="88.42" r="11.27"/><path class="cls-29" d="M93.54,94.62A20.86,20.86,0,0,0,80.81,75.41"/><rect class="cls-12" x="486" y="1180" width="76" height="3" transform="translate(1048 2363) rotate(-180)"/><rect class="cls-12" x="497" y="1175" width="65" height="3" transform="translate(1059 2353) rotate(-180)"/><rect class="cls-12" x="486" y="1190" width="76" height="3" transform="translate(1048 2383) rotate(-180)"/><rect class="cls-12" x="486" y="1185" width="76" height="3" transform="translate(1048 2373) rotate(-180)"/><rect class="cls-12" x="486" y="1200" width="76" height="3" transform="translate(1048 2403) rotate(-180)"/><rect class="cls-12" x="486" y="1195" width="76" height="3" transform="translate(1048 2393) rotate(-180)"/><rect class="cls-12" x="486" y="1210" width="76" height="3" transform="translate(1048 2423) rotate(-180)"/><rect class="cls-12" x="486" y="1205" width="76" height="3" transform="translate(1048 2413) rotate(-180)"/><rect class="cls-12" x="486" y="1226" width="76" height="3" transform="translate(1048 2455) rotate(-180)"/><rect class="cls-12" x="497" y="1221" width="65" height="3" transform="translate(1059 2445) rotate(-180)"/><rect class="cls-12" x="486" y="1236" width="76" height="3" transform="translate(1048 2475) rotate(-180)"/><rect class="cls-12" x="486" y="1231" width="76" height="3" transform="translate(1048 2465) rotate(-180)"/><rect class="cls-12" x="486" y="1151" width="160" height="14" transform="translate(1132 2316) rotate(-180)"/><rect class="cls-9" x="681.5" y="521.5" width="259" height="188" rx="26.48" ry="26.48" transform="translate(195.5 1426.5) rotate(-90)"/><path class="cls-18" d="M432,1192h18a0,0,0,0,1,0,0v12a6,6,0,0,1-6,6h-6a6,6,0,0,1-6-6v-12A0,0,0,0,1,432,1192Z" transform="translate(1642 760) rotate(90)"/><path class="cls-18" d="M191,1136h6a6,6,0,0,1,6,6v12a0,0,0,0,1,0,0H185a0,0,0,0,1,0,0v-12A6,6,0,0,1,191,1136Z" transform="translate(1339 951) rotate(90)"/><rect class="cls-20" x="689.5" y="530.5" width="240" height="171" rx="26.48" ry="26.48" transform="translate(193.5 1425.5) rotate(-90)"/><rect class="cls-3" x="815" y="583" width="65" height="65"/><rect class="cls-4" x="817.17" y="585.17" width="60.67" height="60.67"/><polygon class="cls-5" points="823.13 638.25 877.83 636.63 877.83 609 863.21 598.71 823.13 626.88 823.13 638.25"/><circle class="cls-3" cx="832.15" cy="602.56" r="9.44"/><polygon class="cls-6" points="877.83 645.83 817.17 645.83 817.17 615.5 837.75 606.29 877.83 634.46 877.83 645.83"/><rect class="cls-3" x="815" y="656" width="65" height="65"/><rect class="cls-16" x="817.17" y="658.17" width="60.67" height="60.67"/><path class="cls-9" d="M844.67,664.31s-2.32,4.58-10.06,4.66c-5.07.06-8.35-3.13-9.59-4.37-.11-.11.57,9.33,1,12.18a2,2,0,0,0,.7.81.58.58,0,0,0,.2.24,16.54,16.54,0,0,0,7,2.17,18.64,18.64,0,0,0,7.06-.88c1.63-.62,3.78-1.3,3.83-3.14C844.81,675.21,845,666.46,844.67,664.31Z"/><ellipse class="cls-3" cx="834.86" cy="664.6" rx="9.81" ry="4.6"/><ellipse class="cls-4" cx="834.86" cy="664.28" rx="5.53" ry="2.59"/><path class="cls-7" d="M835.34,662.15a5.83,5.83,0,0,0-1.31.06c-.23,0-.24.26-.17.49.19.6.7,1.43.91,1.46.86.14,1.15-.14,1.29-.43l.57-1C836.63,662.44,835.46,662.17,835.34,662.15Z"/><path class="cls-16" d="M834.33,664.49a11.13,11.13,0,0,1-1.27-1.31h0a.44.44,0,0,0-.56-.29c-.54.16-2,.68-1.84,1.12a5.06,5.06,0,0,0,2.14,1.71,3.63,3.63,0,0,0,1.36-.25A.53.53,0,0,0,834.33,664.49Z"/><path class="cls-17" d="M838.76,663.69c-.17-.49-1.63-.8-1.79-.6-.29.37-1.51,2.71-1.21,2.58C836.52,665.36,839.21,665,838.76,663.69Z"/><path class="cls-9" d="M859.67,674.31s-2.32,4.58-10.06,4.66c-5.07.06-8.35-3.13-9.59-4.37-.11-.11.57,9.33,1,12.18a2,2,0,0,0,.7.81.58.58,0,0,0,.2.24,16.54,16.54,0,0,0,7,2.17,18.64,18.64,0,0,0,7.06-.88c1.63-.62,3.78-1.3,3.83-3.14C859.81,685.21,860,676.46,859.67,674.31Z"/><ellipse class="cls-3" cx="849.86" cy="674.6" rx="9.81" ry="4.6"/><ellipse class="cls-4" cx="849.86" cy="674.28" rx="5.53" ry="2.59"/><path class="cls-7" d="M850.34,672.15a5.83,5.83,0,0,0-1.31.06c-.23,0-.24.26-.17.49.19.6.7,1.43.91,1.46.86.14,1.15-.14,1.29-.43l.57-1C851.63,672.44,850.46,672.17,850.34,672.15Z"/><path class="cls-16" d="M849.33,674.49a11.13,11.13,0,0,1-1.27-1.31h0a.44.44,0,0,0-.56-.29c-.54.16-2,.68-1.84,1.12a5.06,5.06,0,0,0,2.14,1.71,3.63,3.63,0,0,0,1.36-.25A.53.53,0,0,0,849.33,674.49Z"/><path class="cls-17" d="M853.76,673.69c-.17-.49-1.63-.8-1.79-.6-.29.37-1.51,2.71-1.21,2.58C851.52,675.36,854.21,675,853.76,673.69Z"/><path class="cls-9" d="M875.67,684.31s-2.32,4.58-10.06,4.66c-5.07.06-8.35-3.13-9.59-4.37-.11-.11.57,9.33,1,12.18a2,2,0,0,0,.7.81.58.58,0,0,0,.2.24,16.54,16.54,0,0,0,7,2.17,18.64,18.64,0,0,0,7.06-.88c1.63-.62,3.78-1.3,3.83-3.14C875.81,695.21,876,686.46,875.67,684.31Z"/><ellipse class="cls-3" cx="865.86" cy="684.6" rx="9.81" ry="4.6"/><ellipse class="cls-4" cx="865.86" cy="684.28" rx="5.53" ry="2.59"/><path class="cls-7" d="M866.34,682.15a5.83,5.83,0,0,0-1.31.06c-.23,0-.24.26-.17.49.19.6.7,1.43.91,1.46.86.14,1.15-.14,1.29-.43l.57-1C867.63,682.44,866.46,682.17,866.34,682.15Z"/><path class="cls-16" d="M865.33,684.49a11.13,11.13,0,0,1-1.27-1.31h0a.44.44,0,0,0-.56-.29c-.54.16-2,.68-1.84,1.12a5.06,5.06,0,0,0,2.14,1.71,3.63,3.63,0,0,0,1.36-.25A.53.53,0,0,0,865.33,684.49Z"/><path class="cls-17" d="M869.76,683.69c-.17-.49-1.63-.8-1.79-.6-.29.37-1.51,2.71-1.21,2.58C867.52,685.36,870.21,685,869.76,683.69Z"/><path class="cls-9" d="M838.67,678.31s-2.32,4.58-10.06,4.66c-5.07.06-8.35-3.13-9.59-4.37-.11-.11.57,9.33,1,12.18a2,2,0,0,0,.7.81.58.58,0,0,0,.2.24,16.54,16.54,0,0,0,7,2.17,18.64,18.64,0,0,0,7.06-.88c1.63-.62,3.78-1.3,3.83-3.14C838.81,689.21,839,680.46,838.67,678.31Z"/><ellipse class="cls-3" cx="828.86" cy="678.6" rx="9.81" ry="4.6"/><ellipse class="cls-4" cx="828.86" cy="678.28" rx="5.53" ry="2.59"/><path class="cls-7" d="M829.34,676.15a5.83,5.83,0,0,0-1.31.06c-.23,0-.24.26-.17.49.19.6.7,1.43.91,1.46.86.14,1.15-.14,1.29-.43l.57-1C830.63,676.44,829.46,676.17,829.34,676.15Z"/><path class="cls-16" d="M828.33,678.49a11.13,11.13,0,0,1-1.27-1.31h0a.44.44,0,0,0-.56-.29c-.54.16-2,.68-1.84,1.12a5.06,5.06,0,0,0,2.14,1.71,3.63,3.63,0,0,0,1.36-.25A.53.53,0,0,0,828.33,678.49Z"/><path class="cls-17" d="M832.76,677.69c-.17-.49-1.63-.8-1.79-.6-.29.37-1.51,2.71-1.21,2.58C830.52,679.36,833.21,679,832.76,677.69Z"/><path class="cls-9" d="M853.67,688.31s-2.32,4.58-10.06,4.66c-5.07.06-8.35-3.13-9.59-4.37-.11-.11.57,9.33,1,12.18a2,2,0,0,0,.7.81.58.58,0,0,0,.2.24,16.54,16.54,0,0,0,7,2.17,18.64,18.64,0,0,0,7.06-.88c1.63-.62,3.78-1.3,3.83-3.14C853.81,699.21,854,690.46,853.67,688.31Z"/><ellipse class="cls-3" cx="843.86" cy="688.6" rx="9.81" ry="4.6"/><ellipse class="cls-4" cx="843.86" cy="688.28" rx="5.53" ry="2.59"/><path class="cls-7" d="M844.34,686.15a5.83,5.83,0,0,0-1.31.06c-.23,0-.24.26-.17.49.19.6.7,1.43.91,1.46.86.14,1.15-.14,1.29-.43l.57-1C845.63,686.44,844.46,686.17,844.34,686.15Z"/><path class="cls-16" d="M843.33,688.49a11.13,11.13,0,0,1-1.27-1.31h0a.44.44,0,0,0-.56-.29c-.54.16-2,.68-1.84,1.12a5.06,5.06,0,0,0,2.14,1.71,3.63,3.63,0,0,0,1.36-.25A.53.53,0,0,0,843.33,688.49Z"/><path class="cls-17" d="M847.76,687.69c-.17-.49-1.63-.8-1.79-.6-.29.37-1.51,2.71-1.21,2.58C845.52,689.36,848.21,689,847.76,687.69Z"/><path class="cls-9" d="M869.67,698.31s-2.32,4.58-10.06,4.66c-5.07.06-8.35-3.13-9.59-4.37-.11-.11.57,9.33,1,12.18a2,2,0,0,0,.7.81.58.58,0,0,0,.2.24,16.54,16.54,0,0,0,7,2.17,18.64,18.64,0,0,0,7.06-.88c1.63-.62,3.78-1.3,3.83-3.14C869.81,709.21,870,700.46,869.67,698.31Z"/><ellipse class="cls-3" cx="859.86" cy="698.6" rx="9.81" ry="4.6"/><ellipse class="cls-4" cx="859.86" cy="698.28" rx="5.53" ry="2.59"/><path class="cls-7" d="M860.34,696.15a5.83,5.83,0,0,0-1.31.06c-.23,0-.24.26-.17.49.19.6.7,1.43.91,1.46.86.14,1.15-.14,1.29-.43l.57-1C861.63,696.44,860.46,696.17,860.34,696.15Z"/><path class="cls-16" d="M859.33,698.49a11.13,11.13,0,0,1-1.27-1.31h0a.44.44,0,0,0-.56-.29c-.54.16-2,.68-1.84,1.12a5.06,5.06,0,0,0,2.14,1.71,3.63,3.63,0,0,0,1.36-.25A.53.53,0,0,0,859.33,698.49Z"/><path class="cls-17" d="M863.76,697.69c-.17-.49-1.63-.8-1.79-.6-.29.37-1.51,2.71-1.21,2.58C861.52,699.36,864.21,699,863.76,697.69Z"/><path class="cls-4" d="M739,656v65h65V656Z"/><circle class="cls-7" cx="754.4" cy="668.81" r="5.69"/><polygon class="cls-9" points="777 720 740 720 740 699 777 674 777 720"/><polygon class="cls-7" points="803 695 803 720 740 720 740 714 746 708 770 698 777 674 796 688 803 695"/><polygon class="cls-10" points="788 720 740 720 740 699 777 674 779 696 788 720"/><path class="cls-3" d="M739,656v65h65V656Zm62.83,62.83H741.17V658.17h60.67Z"/><circle class="cls-30" cx="847.25" cy="615.75" r="28.75"/><line class="cls-31" x1="832.18" y1="620.31" x2="844.08" y2="627.73"/><line class="cls-31" x1="862.63" y1="599.91" x2="844.08" y2="627.73"/><circle class="cls-30" cx="771.25" cy="688.75" r="28.75"/><line class="cls-31" x1="756.18" y1="693.31" x2="768.08" y2="700.73"/><line class="cls-31" x1="786.63" y1="672.91" x2="768.08" y2="700.73"/><path class="cls-3" d="M76.14,75a1.5,1.5,0,0,0,0-3,1.5,1.5,0,0,0,0,3Z"/><path class="cls-4" d="M815,510v65h65V510Z"/><ellipse class="cls-7" cx="837" cy="544.5" rx="4" ry="13.5" transform="translate(6.27 1098.52) rotate(-66.75)"/><ellipse class="cls-7" cx="842" cy="537.5" rx="4" ry="13.5" transform="translate(-133.45 752.81) rotate(-45)"/><ellipse class="cls-7" cx="836.5" cy="554" rx="13.5" ry="4" transform="translate(-24.94 39.64) rotate(-2.67)"/><ellipse class="cls-7" cx="839.5" cy="563" rx="13.5" ry="4" transform="translate(-169.03 495.18) rotate(-30)"/><ellipse class="cls-7" cx="850" cy="532.5" rx="4" ry="13.5" transform="matrix(0.94, -0.35, 0.35, 0.94, -131.82, 327.37)"/><path class="cls-7" d="M880,563.88c-1.15-.38-2.35-.83-3.57-1.36-6.85-2.94-11.7-7-10.82-9s7.13-1.29,14,1.66l.41.18"/><path class="cls-7" d="M880,575c-.44-.13-1.92-.75-2.42-1a23.9,23.9,0,0,1-7.4-5.34c-5.27-5.27-8.28-10.81-6.72-12.37s7.1,1.45,12.37,6.72a41.13,41.13,0,0,1,4.16,4.83"/><path class="cls-7" d="M880,553.26l-1.3.08c-7.45.35-13.57-1.16-13.67-3.37s5.85-4.28,13.3-4.63q.85,0,1.68,0"/><path class="cls-7" d="M880,542.26c-.79.53-1.62,1-2.49,1.55-6.46,3.73-12.59,5.2-13.69,3.29s3.23-6.49,9.69-10.21a39.92,39.92,0,0,1,6.49-3"/><path class="cls-7" d="M862.38,575c-.39-.88-.77-1.81-1.13-2.77-2.58-7-3-13.28-.92-14s5.85,4.28,8.43,11.28A41.94,41.94,0,0,1,870.4,575"/><ellipse class="cls-7" cx="860.51" cy="531.35" rx="13.5" ry="4" transform="translate(154.32 1255.3) rotate(-77.41)"/><ellipse class="cls-7" cx="869.51" cy="534.35" rx="13.5" ry="4" transform="translate(-99.77 853.82) rotate(-49.81)"/><path class="cls-7" d="M847.79,575c.62-.88,1.24-1.83,1.84-2.82,3.84-6.39,5.41-12.5,3.52-13.63s-6.54,3.12-10.38,9.52a39,39,0,0,0-3.34,6.94"/><path class="cls-7" d="M859.55,575c.1-.84.18-1.72.23-2.62.44-7.44-1-13.58-3.2-13.71s-4.35,5.8-4.79,13.24c-.06,1.06-.09,2.09-.08,3.09"/><circle class="cls-9" cx="857.04" cy="551.46" r="12.04"/><path class="cls-3" d="M815,510v65h65V510Zm62.83,62.83H817.17V512.17h60.67Z"/><path class="cls-4" d="M224,51V92h41V51Z"/><ellipse class="cls-7" cx="237.88" cy="72.76" rx="2.52" ry="8.52" transform="translate(77.11 262.59) rotate(-66.75)"/><ellipse class="cls-7" cx="241.03" cy="68.35" rx="2.52" ry="8.52" transform="translate(22.27 190.45) rotate(-45)"/><ellipse class="cls-7" cx="237.56" cy="78.75" rx="8.52" ry="2.52" transform="matrix(1, -0.05, 0.05, 1, -3.42, 11.17)"/><ellipse class="cls-7" cx="239.45" cy="84.43" rx="8.52" ry="2.52" transform="translate(-10.13 131.04) rotate(-30)"/><ellipse class="cls-7" cx="246.08" cy="65.19" rx="2.52" ry="8.52" transform="translate(-7.35 89.27) rotate(-20.26)"/><path class="cls-7" d="M265,85c-.73-.24-1.48-.53-2.25-.86-4.32-1.86-7.38-4.4-6.83-5.68s4.5-.81,8.82,1l.26.11"/><path class="cls-7" d="M265,92c-.28-.08-1.21-.47-1.53-.62A15.08,15.08,0,0,1,258.81,88c-3.33-3.33-5.22-6.82-4.24-7.81s4.48.91,7.81,4.24a25.94,25.94,0,0,1,2.63,3"/><path class="cls-7" d="M265,78.29l-.82.05c-4.7.22-8.56-.73-8.62-2.12s3.69-2.7,8.39-2.92l1.06,0"/><path class="cls-7" d="M265,71.35c-.5.33-1,.66-1.57,1-4.07,2.35-7.94,3.28-8.64,2.07s2-4.09,6.11-6.44A25.18,25.18,0,0,1,265,66"/><path class="cls-7" d="M253.89,92c-.25-.55-.49-1.14-.71-1.75-1.63-4.41-1.89-8.38-.58-8.86s3.69,2.7,5.32,7.11a26.46,26.46,0,0,1,1,3.49"/><ellipse class="cls-7" cx="252.71" cy="64.47" rx="8.52" ry="2.52" transform="translate(134.69 297.04) rotate(-77.41)"/><ellipse class="cls-7" cx="258.38" cy="66.36" rx="8.52" ry="2.52" transform="translate(40.96 220.93) rotate(-49.81)"/><path class="cls-7" d="M244.68,92c.39-.56.78-1.15,1.16-1.78,2.42-4,3.41-7.88,2.22-8.6s-4.13,2-6.54,6A24.62,24.62,0,0,0,239.41,92"/><path class="cls-7" d="M252.1,92c.06-.53.11-1.08.14-1.65.28-4.69-.63-8.57-2-8.65s-2.74,3.66-3,8.35c0,.67-.05,1.32,0,1.95"/><circle class="cls-9" cx="250.52" cy="77.15" r="7.6"/><path class="cls-3" d="M224,51V92h41V51Zm39.63,39.63H225.37V52.37h38.27Z"/><path class="cls-10" d="M739,583v65h65V583Z"/><rect class="cls-9" x="741" y="616" width="61" height="30"/><ellipse class="cls-6" cx="771" cy="614.44" rx="23" ry="6.44"/><ellipse class="cls-18" cx="771" cy="618.81" rx="23" ry="4.83"/><path class="cls-4" d="M763.87,617.17c0,2.3-2.62,2.83-5,2.83s-4.61-.54-4.61-2.83,2.19-5.49,4.61-5.49S763.87,614.87,763.87,617.17Z"/><path class="cls-4" d="M776.07,615.3c0,2.19-2.62,2.7-5,2.7s-4.61-.51-4.61-2.7,2.19-5.22,4.61-5.22S776.07,613.11,776.07,615.3Z"/><path class="cls-4" d="M788.36,617.2c0,2.3-2.62,2.83-5,2.83s-4.61-.54-4.61-2.83,2.19-5.49,4.61-5.49S788.36,614.91,788.36,617.2Z"/><line class="cls-32" x1="760.3" y1="612.37" x2="761.81" y2="614.69"/><line class="cls-32" x1="758.95" y1="612.26" x2="758.91" y2="615.33"/><line class="cls-32" x1="757.47" y1="612.33" x2="756.43" y2="614.86"/><line class="cls-32" x1="772.63" y1="610.87" x2="774.15" y2="613.19"/><line class="cls-32" x1="770.82" y1="610.3" x2="770.79" y2="613.37"/><line class="cls-32" x1="769.34" y1="610.83" x2="768.31" y2="613.36"/><line class="cls-32" x1="784.43" y1="612.83" x2="785.95" y2="615.15"/><line class="cls-32" x1="783.08" y1="612.26" x2="783.04" y2="615.33"/><line class="cls-32" x1="781.6" y1="612.79" x2="780.57" y2="615.32"/><path class="cls-7" d="M771,620c-12.7,0-23-2.68-23-6v12.41c0,3.31,10.3,6,23,6s23-2.68,23-6V614C794,617.29,783.7,620,771,620Z"/><path class="cls-3" d="M739,583v65h65V583Zm62.83,62.83H741.17V585.17h60.67Z"/><path class="cls-4" d="M739,510v65h65V510Z"/><polygon class="cls-7" points="777.98 535.33 777.98 550 741 550 741 546.48 744.52 542.96 759 534 762.72 523 773.87 531.22 777.98 535.33"/><polygon class="cls-8" points="784 546 741 550 741 537.67 762.72 523 765 529 784 546"/><rect class="cls-6" x="741" y="544" width="62" height="29"/><polygon class="cls-9" points="753 544 773 547 803 545 803 538 791.18 533.09 785.62 519 770.54 527.22 753 544"/><polygon class="cls-6" points="773 547 796 547 803 545 803 532 785.62 519 777 529 776 535 773 547"/><polygon class="cls-7" points="787 538 796 547 803 546 802 525 798 526 785.62 519 783 529 787 538"/><polygon class="cls-9" points="798 526 799 532 801.81 526.5 802 525 798 526"/><path class="cls-3" d="M739,510v65h65V510Zm62.83,62.83H741.17V512.17h60.67Z"/><circle class="cls-30" cx="771.25" cy="541.75" r="28.75"/><line class="cls-31" x1="756.18" y1="546.31" x2="768.08" y2="553.73"/><line class="cls-31" x1="786.63" y1="525.91" x2="768.08" y2="553.73"/></g></g></svg>