<svg xmlns="http://www.w3.org/2000/svg" viewBox="0 0 297.05 298"><defs><style>.cls-1{fill:#129eda;}</style></defs><title>Logo_WF_Aperture</title><g id="Layer_2" data-name="Layer 2"><g id="Layer_2-2" data-name="Layer 2"><path class="cls-1" d="M172.33,198.27l-19.7-10.34a8.33,8.33,0,0,0-7.7,0l-100.24,52a8.39,8.39,0,0,0-2.09,13.32A148.57,148.57,0,0,0,176.07,295.5a16.54,16.54,0,0,0,13-19.15l-12.4-72.12A8.33,8.33,0,0,0,172.33,198.27Z"/><path class="cls-1" d="M205.07,140.26l-16.13,15.59a8.33,8.33,0,0,0-2.42,7.4l19.24,111.87a8.39,8.39,0,0,0,12.18,6,149.75,149.75,0,0,0,44.44-35.55,148.26,148.26,0,0,0,34.57-79.25,16.6,16.6,0,0,0-14.25-18.13L212,138A8.33,8.33,0,0,0,205.07,140.26Z"/><path class="cls-1" d="M276.13,71.58a149.4,149.4,0,0,0-63.85-57.35,16.56,16.56,0,0,0-21.73,7.87L160,84a8.33,8.33,0,0,0,0,7.35l9.82,20a8.33,8.33,0,0,0,6.29,4.58l110,15.82a8.39,8.39,0,0,0,9.42-9.84A148.59,148.59,0,0,0,276.13,71.58Z"/><path class="cls-1" d="M29.81,78.91a8.38,8.38,0,0,0-13.28,2.16A146.91,146.91,0,0,0,.8,133.55,150.72,150.72,0,0,0,0,149a148.13,148.13,0,0,0,16.62,68.36,16.53,16.53,0,0,0,22.29,6.77L103,190.9a8.33,8.33,0,0,0,4.37-6l3.73-21.71a8.33,8.33,0,0,0-2.39-7.37Z"/><path class="cls-1" d="M176.22,13.51a8.37,8.37,0,0,0-6.29-12A146,146,0,0,0,149,0c-1.7,0-3.34.2-5,.25A147,147,0,0,0,42.33,45.17a16.53,16.53,0,0,0,.59,23.27l49.7,48.47a8.33,8.33,0,0,0,7,2.28l22-3.19a8.33,8.33,0,0,0,6.27-4.56Z"/></g></g></svg>