<svg xmlns="http://www.w3.org/2000/svg" viewBox="0 0 174.48 23.19"><defs><style>.cls-1{fill:#fff;}.cls-2{fill:#129eda;}</style></defs><title>Logo_WinningFotos_White</title><g id="Layer_2" data-name="Layer 2"><g id="Layer_1-2" data-name="Layer 1"><path class="cls-1" d="M47.82,4.22a.27.27,0,0,1,.26.37l-4,14.45a.55.55,0,0,1-.48.35H39.77a.55.55,0,0,1-.51-.35l-2-7.74-2,7.74a.55.55,0,0,1-.51.35H30.92a.55.55,0,0,1-.48-.35l-4-14.45a.27.27,0,0,1,.26-.37h4.93a.55.55,0,0,1,.51.37l1.25,6.58L35.08,4.6a.62.62,0,0,1,.59-.37h3.17a.62.62,0,0,1,.59.37l1.69,6.58L42.38,4.6a.55.55,0,0,1,.51-.37Z"/><path class="cls-1" d="M53.13,4.22a.32.32,0,0,1,.33.33V19.1a.32.32,0,0,1-.33.31H49.23a.33.33,0,0,1-.31-.31V4.55a.33.33,0,0,1,.31-.33Z"/><path class="cls-1" d="M67.67,4.22a.32.32,0,0,1,.33.33V19.1a.32.32,0,0,1-.33.31H63.86a.6.6,0,0,1-.46-.29l-3.83-6.84V19.1a.32.32,0,0,1-.33.31H55.35A.31.31,0,0,1,55,19.1V4.55a.32.32,0,0,1,.31-.33h3.81a.58.58,0,0,1,.51.29l3.81,6.84V4.55a.34.34,0,0,1,.31-.33Z"/><path class="cls-1" d="M82.21,4.22a.32.32,0,0,1,.33.33V19.1a.32.32,0,0,1-.33.31H78.4a.6.6,0,0,1-.46-.29l-3.83-6.84V19.1a.32.32,0,0,1-.33.31H69.89a.31.31,0,0,1-.31-.31V4.55a.32.32,0,0,1,.31-.33h3.81a.58.58,0,0,1,.51.29L78,11.35V4.55a.33.33,0,0,1,.31-.33Z"/><path class="cls-1" d="M88.32,4.22a.32.32,0,0,1,.33.33V19.1a.32.32,0,0,1-.33.31H84.42a.33.33,0,0,1-.31-.31V4.55a.33.33,0,0,1,.31-.33Z"/><path class="cls-1" d="M102.86,4.22a.32.32,0,0,1,.33.33V19.1a.32.32,0,0,1-.33.31H99.05a.6.6,0,0,1-.46-.29l-3.83-6.84V19.1a.32.32,0,0,1-.33.31H90.54a.31.31,0,0,1-.31-.31V4.55a.32.32,0,0,1,.31-.33h3.81a.58.58,0,0,1,.51.29l3.81,6.84V4.55A.34.34,0,0,1,99,4.22Z"/><path class="cls-1" d="M117.73,10.1a.34.34,0,0,1,.33.31v7a.72.72,0,0,1-.26.53,8.59,8.59,0,0,1-5.46,1.78,7.48,7.48,0,0,1-7.92-7.92,7.48,7.48,0,0,1,7.92-7.92A9.09,9.09,0,0,1,117,5.15a.34.34,0,0,1,.2.4l-1.1,3.23a.34.34,0,0,1-.42.18,7,7,0,0,0-3.17-.77,3.32,3.32,0,0,0-3.39,3.61,3.33,3.33,0,0,0,3.39,3.65,2.27,2.27,0,0,0,1.61-.42V13.75h-2c-.2,0-.33-.09-.35-.24l-.29-3a.32.32,0,0,1,.35-.37Zm-3.52,4.6v0Z"/><path class="cls-2" d="M128.46,7.3a.31.31,0,0,1,.33.31l-.24,2.13a.36.36,0,0,1-.33.33h-1.28v9a.28.28,0,0,1-.31.31h-3.92a.28.28,0,0,1-.31-.31v-9h-1.17a.32.32,0,0,1-.31-.31V7.63a.32.32,0,0,1,.31-.33h1.21c.11-2.62,1.41-3.85,4-3.85h1.91a.28.28,0,0,1,.31.31V5.9a.3.3,0,0,1-.31.33c-.84,0-1.3.33-1.41,1.08Z"/><path class="cls-2" d="M142.16,13.35a6.47,6.47,0,0,1-12.94,0,6.47,6.47,0,0,1,12.94,0Zm-8.65,0a2.19,2.19,0,1,0,4.36,0,2.19,2.19,0,1,0-4.36,0Z"/><path class="cls-2" d="M150.57,7.3a.31.31,0,0,1,.33.31l-.24,2.13a.35.35,0,0,1-.33.33h-1.41v9a.34.34,0,0,1-.33.33h-3.87a.34.34,0,0,1-.33-.33v-9h-1.25a.32.32,0,0,1-.31-.31V7.63a.32.32,0,0,1,.31-.33h1.25V4.91a.35.35,0,0,1,.33-.31l3.87-.37a.32.32,0,0,1,.33.31V7.3Z"/><path class="cls-2" d="M164.05,13.35a6.47,6.47,0,0,1-12.94,0,6.47,6.47,0,0,1,12.94,0Zm-8.65,0a2.19,2.19,0,1,0,4.36,0,2.19,2.19,0,1,0-4.36,0Z"/><path class="cls-2" d="M166.16,15.58a.18.18,0,0,1,.29-.09,5.52,5.52,0,0,0,2.53.9c.46,0,.77-.22.77-.55,0-1.12-4.82-.77-4.82-4.91,0-2.35,2-3.94,5-3.94a8.64,8.64,0,0,1,4.31,1.25c.11.09.18.2.13.31l-1.12,2.6a.18.18,0,0,1-.29.09,5.06,5.06,0,0,0-2.53-.9c-.46,0-.77.18-.77.53,0,1.17,4.82.75,4.82,4.93,0,2.35-1.94,3.94-4.86,3.94a9.33,9.33,0,0,1-4.44-1.25.34.34,0,0,1-.13-.35Z"/><path class="cls-2" d="M13.41,15.43l-1.53-.8a.65.65,0,0,0-.6,0l-7.8,4a.65.65,0,0,0-.16,1A11.56,11.56,0,0,0,13.7,23a1.29,1.29,0,0,0,1-1.49l-1-5.61A.65.65,0,0,0,13.41,15.43Z"/><path class="cls-2" d="M16,10.91,14.7,12.13a.65.65,0,0,0-.19.58l1.5,8.7a.65.65,0,0,0,.95.46,11.65,11.65,0,0,0,3.46-2.77,11.54,11.54,0,0,0,2.69-6.17A1.29,1.29,0,0,0,22,11.53l-5.5-.79A.65.65,0,0,0,16,10.91Z"/><path class="cls-2" d="M21.49,5.57a11.63,11.63,0,0,0-5-4.46,1.29,1.29,0,0,0-1.69.61L12.45,6.54a.65.65,0,0,0,0,.57l.76,1.56A.65.65,0,0,0,13.7,9l8.56,1.23A.65.65,0,0,0,23,9.49,11.56,11.56,0,0,0,21.49,5.57Z"/><path class="cls-2" d="M2.32,6.14a.65.65,0,0,0-1,.17A11.43,11.43,0,0,0,.06,10.39,11.73,11.73,0,0,0,0,11.59a11.53,11.53,0,0,0,1.29,5.32A1.29,1.29,0,0,0,3,17.44l5-2.59a.65.65,0,0,0,.34-.47l.29-1.69a.65.65,0,0,0-.19-.57Z"/><path class="cls-2" d="M13.71,1.05a.65.65,0,0,0-.49-.93A11.36,11.36,0,0,0,11.59,0L11.2,0A11.44,11.44,0,0,0,3.29,3.51a1.29,1.29,0,0,0,0,1.81L7.21,9.1a.65.65,0,0,0,.55.18L9.46,9A.65.65,0,0,0,10,8.67Z"/></g></g></svg>