<?xml version="1.0" encoding="UTF-8"?>
<svg width="216px" height="26px" viewBox="0 0 216 26" version="1.1" xmlns="http://www.w3.org/2000/svg" xmlns:xlink="http://www.w3.org/1999/xlink">
    <!-- Generator: Sketch 41.2 (35397) - http://www.bohemiancoding.com/sketch -->
    <title>HD-KodakWF Logo Small Size</title>
    <desc>Created with Sketch.</desc>
    <defs>
        <polygon id="path-1" points="10.1228979 0.0466408222 1.79435156e-05 0.0466408222 1.79435156e-05 24.8586068 10.1228979 24.8586068 10.1228979 0.0466408222"></polygon>
    </defs>
    <g id="Symbols" stroke="none" stroke-width="1" fill="none" fill-rule="evenodd">
        <g id="HD-KodakWF-Logo-Small-Size">
            <g id="Group-14">
                <g id="Group-10" transform="translate(0.000000, 0.007463)">
                    <path d="M45.5870769,18.5603412 L48.2787692,18.5603412 L48.2787692,13.0607693 L52.3827692,18.5603412 L55.5230769,18.5603412 L50.5883077,12.1013424 L55.2904615,6.29338337 L52.4326154,6.29338337 L48.2787692,11.5873638 L48.2787692,6.31051599 L45.5870769,6.31051599 L45.5870769,18.5603412 Z M62.5181538,16.5386917 C60.5741538,16.5386917 59.1784615,14.9967557 59.1784615,12.4953928 L59.1784615,12.3583318 C59.1784615,9.89123412 60.4246154,8.33216546 62.4849231,8.33216546 C64.5618462,8.33216546 65.7913846,9.95976461 65.7913846,12.3411991 L65.7913846,12.4782601 C65.7913846,14.9453578 64.5286154,16.5386917 62.5181538,16.5386917 Z M62.4683077,18.7488 C66.1735385,18.7488 68.5993846,16.0932435 68.5993846,12.4439949 L68.5993846,12.3069339 C68.5993846,8.62342004 66.0572308,6.13918977 62.4849231,6.13918977 C58.9624615,6.13918977 56.3704615,8.72621578 56.3704615,12.3754644 L56.3704615,12.5125254 C56.3704615,16.0932435 58.7464615,18.7488 62.4683077,18.7488 Z M73.2350769,16.4016307 L73.2350769,8.46922644 L74.2984615,8.46922644 C76.8073846,8.46922644 77.8541538,9.82270362 77.8541538,12.3411991 L77.8541538,12.4782601 C77.8541538,15.0138883 76.7243077,16.4016307 74.3316923,16.4016307 L73.2350769,16.4016307 Z M70.5433846,18.5603412 L74.4147692,18.5603412 C78.5852308,18.5603412 80.6621538,16.1103761 80.6621538,12.4439949 L80.6621538,12.3069339 C80.6621538,8.64055267 78.6018462,6.31051599 74.4313846,6.31051599 L70.5433846,6.31051599 L70.5433846,18.5603412 Z M81.6756923,18.5603412 L84.2012308,18.5603412 L85.0153846,15.8362542 L89.3187692,15.8362542 L90.1329231,18.5603412 L92.9409231,18.5603412 L89.0861538,6.31051599 L85.5803077,6.31051599 L81.6756923,18.5603412 Z M87.1753846,8.57202217 L88.7372308,13.8660026 L85.5969231,13.8660026 L87.1753846,8.57202217 Z M94.5692308,18.5603412 L97.2609231,18.5603412 L97.2609231,13.0607693 L101.364923,18.5603412 L104.505231,18.5603412 L99.5704615,12.1013424 L104.272615,6.29338337 L101.414769,6.29338337 L97.2609231,11.5873638 L97.2609231,6.31051599 L94.5692308,6.31051599 L94.5692308,18.5603412 Z" id="KODAK-Winning-Fotos" fill="#ED0000"></path>
                    <path d="M112.065231,18.5603412 L112.945846,18.5603412 L116.036308,8.00664563 L118.960615,18.5603412 L119.857846,18.5603412 L123.114462,6.31051599 L122.267077,6.31051599 L119.392615,17.1383335 L116.368615,6.31051599 L115.720615,6.31051599 L112.580308,17.1040682 L109.855385,6.31051599 L108.924923,6.31051599 L112.065231,18.5603412 Z M125.058462,18.5603412 L125.939077,18.5603412 L125.939077,9.59997953 L125.058462,9.59997953 L125.058462,18.5603412 Z M125.490462,7.6811258 C125.839385,7.6811258 126.105231,7.38987122 126.105231,7.03008614 C126.105231,6.68743369 125.839385,6.3961791 125.490462,6.3961791 C125.141538,6.3961791 124.859077,6.68743369 124.859077,7.03008614 C124.859077,7.38987122 125.141538,7.6811258 125.490462,7.6811258 Z M128.697231,18.5603412 L129.577846,18.5603412 L129.577846,13.1292998 C129.577846,11.2447113 131.006769,10.2510192 132.452308,10.2510192 C133.997538,10.2510192 134.861538,11.0905177 134.861538,12.9922388 L134.861538,18.5603412 L135.742154,18.5603412 L135.742154,13.0436367 C135.742154,10.4908759 134.496,9.46291855 132.651692,9.46291855 C131.106462,9.46291855 129.976615,10.3709475 129.577846,11.347507 L129.577846,9.59997953 L128.697231,9.59997953 L128.697231,18.5603412 Z M138.384,18.5603412 L139.264615,18.5603412 L139.264615,13.1292998 C139.264615,11.2447113 140.693538,10.2510192 142.139077,10.2510192 C143.684308,10.2510192 144.548308,11.0905177 144.548308,12.9922388 L144.548308,18.5603412 L145.428923,18.5603412 L145.428923,13.0436367 C145.428923,10.4908759 144.182769,9.46291855 142.338462,9.46291855 C140.793231,9.46291855 139.663385,10.3709475 139.264615,11.347507 L139.264615,9.59997953 L138.384,9.59997953 L138.384,18.5603412 Z M148.104,18.5603412 L148.984615,18.5603412 L148.984615,9.59997953 L148.104,9.59997953 L148.104,18.5603412 Z M148.536,7.6811258 C148.884923,7.6811258 149.150769,7.38987122 149.150769,7.03008614 C149.150769,6.68743369 148.884923,6.3961791 148.536,6.3961791 C148.187077,6.3961791 147.904615,6.68743369 147.904615,7.03008614 C147.904615,7.38987122 148.187077,7.6811258 148.536,7.6811258 Z M151.742769,18.5603412 L152.623385,18.5603412 L152.623385,13.1292998 C152.623385,11.2447113 154.052308,10.2510192 155.497846,10.2510192 C157.043077,10.2510192 157.907077,11.0905177 157.907077,12.9922388 L157.907077,18.5603412 L158.787692,18.5603412 L158.787692,13.0436367 C158.787692,10.4908759 157.541538,9.46291855 155.697231,9.46291855 C154.152,9.46291855 153.022154,10.3709475 152.623385,11.347507 L152.623385,9.59997953 L151.742769,9.59997953 L151.742769,18.5603412 Z M164.852308,21.7812742 C167.178462,21.7812742 168.856615,20.5991232 168.873231,17.9606994 L168.873231,9.59997953 L167.992615,9.59997953 L167.992615,11.5359659 C167.494154,10.439478 166.530462,9.46291855 164.819077,9.46291855 C162.526154,9.46291855 160.781538,11.3132418 160.781538,13.8660026 L160.781538,13.9859309 C160.781538,16.5900896 162.492923,18.2690866 164.702769,18.2690866 C166.314462,18.2690866 167.527385,17.1725987 167.992615,16.0932435 L167.992615,17.9264341 C167.992615,20.1365424 166.696615,21.0103062 164.835692,21.0103062 C163.024615,21.0103062 162.094154,20.2222055 161.861538,19.0743198 L160.964308,19.0743198 C161.180308,20.5134601 162.343385,21.7812742 164.852308,21.7812742 Z M164.785846,17.4981186 C163.057846,17.4981186 161.695385,16.1960392 161.695385,13.9687983 L161.695385,13.8317373 C161.695385,11.6044964 163.041231,10.2338866 164.902154,10.2338866 C166.713231,10.2338866 168.009231,11.5359659 168.009231,13.7974721 L168.009231,13.934533 C168.009231,16.1789066 166.547077,17.4981186 164.785846,17.4981186 Z M175.868308,18.5603412 L176.798769,18.5603412 L176.798769,12.7523821 L181.384615,12.7523821 L181.384615,11.9642814 L176.798769,11.9642814 L176.798769,7.09861663 L182.630769,7.09861663 L182.630769,6.31051599 L175.868308,6.31051599 L175.868308,18.5603412 Z M188.230154,17.9264341 C186.336,17.9264341 184.940308,16.4530286 184.940308,14.1572571 L184.940308,14.0201962 C184.940308,11.6901595 186.369231,10.2338866 188.230154,10.2338866 C190.074462,10.2338866 191.503385,11.6558942 191.503385,14.0201962 L191.503385,14.1572571 C191.503385,16.4701612 190.091077,17.9264341 188.230154,17.9264341 Z M188.213538,18.6974021 C190.556308,18.6974021 192.417231,16.8470789 192.417231,14.1401245 L192.417231,14.0030635 C192.417231,11.2789765 190.572923,9.46291855 188.230154,9.46291855 C185.904,9.46291855 184.026462,11.3303744 184.026462,14.0201962 L184.026462,14.1572571 C184.026462,16.795681 185.854154,18.6974021 188.213538,18.6974021 Z M196.953231,18.6802695 C197.484923,18.6802695 197.817231,18.5946064 198.099692,18.4918107 L198.099692,17.7208426 C197.800615,17.8236384 197.451692,17.9093015 197.003077,17.9093015 C196.205538,17.9093015 195.707077,17.4124554 195.707077,16.3331002 L195.707077,10.3709475 L197.983385,10.3709475 L197.983385,9.59997953 L195.707077,9.59997953 L195.707077,7.56119744 L194.826462,7.56119744 L194.826462,9.59997953 L193.547077,9.59997953 L193.547077,10.3709475 L194.826462,10.3709475 L194.826462,16.4016307 C194.826462,17.840771 195.574154,18.6802695 196.953231,18.6802695 Z M203.665846,17.9264341 C201.771692,17.9264341 200.376,16.4530286 200.376,14.1572571 L200.376,14.0201962 C200.376,11.6901595 201.804923,10.2338866 203.665846,10.2338866 C205.510154,10.2338866 206.939077,11.6558942 206.939077,14.0201962 L206.939077,14.1572571 C206.939077,16.4701612 205.526769,17.9264341 203.665846,17.9264341 Z M203.649231,18.6974021 C205.992,18.6974021 207.852923,16.8470789 207.852923,14.1401245 L207.852923,14.0030635 C207.852923,11.2789765 206.008615,9.46291855 203.665846,9.46291855 C201.339692,9.46291855 199.462154,11.3303744 199.462154,14.0201962 L199.462154,14.1572571 C199.462154,16.795681 201.289846,18.6974021 203.649231,18.6974021 Z M212.538462,18.7145348 C214.515692,18.7145348 215.595692,17.6180469 215.595692,16.1103761 C215.595692,14.3628486 214.532308,13.9002678 212.671385,13.5576154 C210.893538,13.2320955 210.295385,12.8551778 210.295385,11.8272205 C210.295385,10.8677936 211.109538,10.2338866 212.322462,10.2338866 C213.585231,10.2338866 214.299692,10.7478652 214.515692,11.895751 L215.363077,11.895751 C215.130462,10.1310908 213.900923,9.46291855 212.339077,9.46291855 C210.876923,9.46291855 209.481231,10.3366823 209.481231,11.8614857 C209.481231,13.4034217 210.345231,13.9687983 212.472,14.3628486 C214.100308,14.6712358 214.748308,15.0310209 214.748308,16.1789066 C214.748308,17.2582618 214.000615,17.9435667 212.538462,17.9435667 C210.926769,17.9435667 210.195692,17.1040682 210.046154,15.887652 L209.198769,15.887652 C209.315077,17.6009143 210.494769,18.7145348 212.538462,18.7145348 Z" id="KODAK-Winning-Fotos" fill="#000000"></path>
                    <mask id="mask-2" fill="white">
                        <use xlink:href="#path-1"></use>
                    </mask>
                    <g id="Clip-6"></g>
                </g>
                <g id="Page-1-Copy" transform="translate(0.000000, 0.691244)" fill="#ED0000">
                    <g id="Group-6" transform="translate(0.000000, 0.136233)">
                        <path d="M2.69681617,12.2807408 C2.55407823,12.0759465 2.33051456,11.7686067 2.33051456,11.4614153 C2.33051456,11.215217 2.39080139,10.9896464 2.51359148,10.8051832 L9.65359148,0.868208989 C9.71446936,0.786884888 9.73530378,0.684636153 9.73530378,0.561314386 C9.73530378,0.253826175 9.49046241,0.00807304954 9.18459539,0.00807304954 L1.7789196,0.00807304954 C0.88156193,0.00807304954 0.14703781,0.786884888 0.14703781,1.68827649 L0.14703781,21.0503876 C0.14703781,21.9719619 0.88156193,22.709518 1.7789196,22.709518 L9.18459539,22.709518 C9.49046241,22.709518 9.73530378,22.4631713 9.73530378,22.1562767 C9.73530378,22.0339937 9.69422599,21.9108204 9.63334811,21.8081264 L2.69681617,12.2807408 Z" id="Fill-2"></path>
                        <path d="M24.5052229,0.00814725036 L17.1400339,0.00814725036 C16.4666832,0.00814725036 16.0393559,0.315338657 15.4876132,0.786810687 L3.22781312,11.235919 C3.16590091,11.2972089 3.14624859,11.3584987 3.14624859,11.4407133 C3.14624859,11.5224826 3.16590091,11.5840692 3.22781312,11.6456559 L15.8138714,22.2378234 C16.1614072,22.525129 16.65109,22.7095922 17.1400339,22.7095922 L24.4845363,22.7095922 C25.4027284,22.7095922 26.1365137,21.9720361 26.1365137,21.0503134 L26.1365137,1.68820228 C26.1365137,0.786810687 25.4027284,0.00814725036 24.5052229,0.00814725036" id="Fill-4"></path>
                    </g>
                </g>
            </g>
        </g>
    </g>
</svg>