<?xml version="1.0" encoding="UTF-8"?>
<svg width="268px" height="31px" viewBox="0 0 268 31" version="1.1" xmlns="http://www.w3.org/2000/svg" xmlns:xlink="http://www.w3.org/1999/xlink">
    <!-- Generator: Sketch 41.2 (35397) - http://www.bohemiancoding.com/sketch -->
    <title>HD-KodakWF Logo Regular Size</title>
    <desc>Created with Sketch.</desc>
    <defs>
        <polygon id="path-1" points="12.5598918 0.0560024209 2.22632516e-05 0.0560024209 2.22632516e-05 29.8481479 12.5598918 29.8481479 12.5598918 0.0560024209"></polygon>
    </defs>
    <g id="Symbols" stroke="none" stroke-width="1" fill="none" fill-rule="evenodd">
        <g id="HD-KodakWF-Logo-Regular-Size">
            <g id="Group-14">
                <g id="Group-10">
                    <path d="M56.5617436,22.2857143 L59.9014359,22.2857143 L59.9014359,15.6822857 L64.9934359,22.2857143 L68.8897436,22.2857143 L62.7669744,14.5302857 L68.6011282,7.55657143 L65.0552821,7.55657143 L59.9014359,13.9131429 L59.9014359,7.57714286 L56.5617436,7.57714286 L56.5617436,22.2857143 Z M77.5688205,19.8582857 C75.1568205,19.8582857 73.4251282,18.0068571 73.4251282,15.0034286 L73.4251282,14.8388571 C73.4251282,11.8765714 74.9712821,10.0045714 77.5275897,10.0045714 C80.1045128,10.0045714 81.6300513,11.9588571 81.6300513,14.8182857 L81.6300513,14.9828571 C81.6300513,17.9451429 80.0632821,19.8582857 77.5688205,19.8582857 Z M77.5069744,22.512 C82.1042051,22.512 85.1140513,19.3234286 85.1140513,14.9417143 L85.1140513,14.7771429 C85.1140513,10.3542857 81.9598974,7.37142857 77.5275897,7.37142857 C73.1571282,7.37142857 69.9411282,10.4777143 69.9411282,14.8594286 L69.9411282,15.024 C69.9411282,19.3234286 72.8891282,22.512 77.5069744,22.512 Z M90.8657436,19.6937143 L90.8657436,10.1691429 L92.1851282,10.1691429 C95.2980513,10.1691429 96.5968205,11.7942857 96.5968205,14.8182857 L96.5968205,14.9828571 C96.5968205,18.0274286 95.1949744,19.6937143 92.226359,19.6937143 L90.8657436,19.6937143 Z M87.5260513,22.2857143 L92.3294359,22.2857143 C97.5038974,22.2857143 100.080821,19.344 100.080821,14.9417143 L100.080821,14.7771429 C100.080821,10.3748571 97.5245128,7.57714286 92.3500513,7.57714286 L87.5260513,7.57714286 L87.5260513,22.2857143 Z M101.338359,22.2857143 L104.471897,22.2857143 L105.482051,19.0148571 L110.821436,19.0148571 L111.83159,22.2857143 L115.31559,22.2857143 L110.532821,7.57714286 L106.182974,7.57714286 L101.338359,22.2857143 Z M108.162051,10.2925714 L110.099897,16.6491429 L106.20359,16.6491429 L108.162051,10.2925714 Z M117.335897,22.2857143 L120.67559,22.2857143 L120.67559,15.6822857 L125.76759,22.2857143 L129.663897,22.2857143 L123.541128,14.5302857 L129.375282,7.55657143 L125.829436,7.55657143 L120.67559,13.9131429 L120.67559,7.57714286 L117.335897,7.57714286 L117.335897,22.2857143 Z" id="KODAK-Winning-Fotos" fill="#ED0000"></path>
                    <path d="M139.043897,22.2857143 L140.136513,22.2857143 L143.970974,9.61371429 L147.599282,22.2857143 L148.712513,22.2857143 L152.753128,7.57714286 L151.701744,7.57714286 L148.135282,20.5782857 L144.383282,7.57714286 L143.579282,7.57714286 L139.682974,20.5371429 L136.302051,7.57714286 L135.14759,7.57714286 L139.043897,22.2857143 Z M155.165128,22.2857143 L156.257744,22.2857143 L156.257744,11.5268571 L155.165128,11.5268571 L155.165128,22.2857143 Z M155.701128,9.22285714 C156.134051,9.22285714 156.463897,8.87314286 156.463897,8.44114286 C156.463897,8.02971429 156.134051,7.68 155.701128,7.68 C155.268205,7.68 154.917744,8.02971429 154.917744,8.44114286 C154.917744,8.87314286 155.268205,9.22285714 155.701128,9.22285714 Z M159.679897,22.2857143 L160.772513,22.2857143 L160.772513,15.7645714 C160.772513,13.5017143 162.545436,12.3085714 164.338974,12.3085714 C166.256205,12.3085714 167.328205,13.3165714 167.328205,15.6 L167.328205,22.2857143 L168.420821,22.2857143 L168.420821,15.6617143 C168.420821,12.5965714 166.874667,11.3622857 164.586359,11.3622857 C162.669128,11.3622857 161.267282,12.4525714 160.772513,13.6251429 L160.772513,11.5268571 L159.679897,11.5268571 L159.679897,22.2857143 Z M171.698667,22.2857143 L172.791282,22.2857143 L172.791282,15.7645714 C172.791282,13.5017143 174.564205,12.3085714 176.357744,12.3085714 C178.274974,12.3085714 179.346974,13.3165714 179.346974,15.6 L179.346974,22.2857143 L180.43959,22.2857143 L180.43959,15.6617143 C180.43959,12.5965714 178.893436,11.3622857 176.605128,11.3622857 C174.687897,11.3622857 173.286051,12.4525714 172.791282,13.6251429 L172.791282,11.5268571 L171.698667,11.5268571 L171.698667,22.2857143 Z M183.758667,22.2857143 L184.851282,22.2857143 L184.851282,11.5268571 L183.758667,11.5268571 L183.758667,22.2857143 Z M184.294667,9.22285714 C184.72759,9.22285714 185.057436,8.87314286 185.057436,8.44114286 C185.057436,8.02971429 184.72759,7.68 184.294667,7.68 C183.861744,7.68 183.511282,8.02971429 183.511282,8.44114286 C183.511282,8.87314286 183.861744,9.22285714 184.294667,9.22285714 Z M188.273436,22.2857143 L189.366051,22.2857143 L189.366051,15.7645714 C189.366051,13.5017143 191.138974,12.3085714 192.932513,12.3085714 C194.849744,12.3085714 195.921744,13.3165714 195.921744,15.6 L195.921744,22.2857143 L197.014359,22.2857143 L197.014359,15.6617143 C197.014359,12.5965714 195.468205,11.3622857 193.179897,11.3622857 C191.262667,11.3622857 189.860821,12.4525714 189.366051,13.6251429 L189.366051,11.5268571 L188.273436,11.5268571 L188.273436,22.2857143 Z M204.538974,26.1531429 C207.425128,26.1531429 209.507282,24.7337143 209.527897,21.5657143 L209.527897,11.5268571 L208.435282,11.5268571 L208.435282,13.8514286 C207.816821,12.5348571 206.621128,11.3622857 204.497744,11.3622857 C201.652821,11.3622857 199.488205,13.584 199.488205,16.6491429 L199.488205,16.7931429 C199.488205,19.92 201.61159,21.936 204.353436,21.936 C206.353128,21.936 207.858051,20.6194286 208.435282,19.3234286 L208.435282,21.5245714 C208.435282,24.1782857 206.827282,25.2274286 204.518359,25.2274286 C202.271282,25.2274286 201.116821,24.2811429 200.828205,22.9028571 L199.714974,22.9028571 C199.982974,24.6308571 201.426051,26.1531429 204.538974,26.1531429 Z M204.456513,21.0102857 C202.312513,21.0102857 200.622051,19.4468571 200.622051,16.7725714 L200.622051,16.608 C200.622051,13.9337143 202.291897,12.288 204.600821,12.288 C206.847897,12.288 208.455897,13.8514286 208.455897,16.5668571 L208.455897,16.7314286 C208.455897,19.4262857 206.641744,21.0102857 204.456513,21.0102857 Z M218.206974,22.2857143 L219.361436,22.2857143 L219.361436,15.312 L225.051282,15.312 L225.051282,14.3657143 L219.361436,14.3657143 L219.361436,8.52342857 L226.597436,8.52342857 L226.597436,7.57714286 L218.206974,7.57714286 L218.206974,22.2857143 Z M233.544821,21.5245714 C231.194667,21.5245714 229.462974,19.7554286 229.462974,16.9988571 L229.462974,16.8342857 C229.462974,14.0365714 231.235897,12.288 233.544821,12.288 C235.833128,12.288 237.606051,13.9954286 237.606051,16.8342857 L237.606051,16.9988571 C237.606051,19.776 235.853744,21.5245714 233.544821,21.5245714 Z M233.524205,22.4502857 C236.430974,22.4502857 238.739897,20.2285714 238.739897,16.9782857 L238.739897,16.8137143 C238.739897,13.5428571 236.45159,11.3622857 233.544821,11.3622857 C230.658667,11.3622857 228.329128,13.6045714 228.329128,16.8342857 L228.329128,16.9988571 C228.329128,20.1668571 230.596821,22.4502857 233.524205,22.4502857 Z M244.367897,22.4297143 C245.02759,22.4297143 245.439897,22.3268571 245.790359,22.2034286 L245.790359,21.2777143 C245.419282,21.4011429 244.986359,21.504 244.429744,21.504 C243.440205,21.504 242.821744,20.9074286 242.821744,19.6114286 L242.821744,12.4525714 L245.646051,12.4525714 L245.646051,11.5268571 L242.821744,11.5268571 L242.821744,9.07885714 L241.729128,9.07885714 L241.729128,11.5268571 L240.141744,11.5268571 L240.141744,12.4525714 L241.729128,12.4525714 L241.729128,19.6937143 C241.729128,21.4217143 242.656821,22.4297143 244.367897,22.4297143 Z M252.696513,21.5245714 C250.346359,21.5245714 248.614667,19.7554286 248.614667,16.9988571 L248.614667,16.8342857 C248.614667,14.0365714 250.38759,12.288 252.696513,12.288 C254.984821,12.288 256.757744,13.9954286 256.757744,16.8342857 L256.757744,16.9988571 C256.757744,19.776 255.005436,21.5245714 252.696513,21.5245714 Z M252.675897,22.4502857 C255.582667,22.4502857 257.89159,20.2285714 257.89159,16.9782857 L257.89159,16.8137143 C257.89159,13.5428571 255.603282,11.3622857 252.696513,11.3622857 C249.810359,11.3622857 247.480821,13.6045714 247.480821,16.8342857 L247.480821,16.9988571 C247.480821,20.1668571 249.748513,22.4502857 252.675897,22.4502857 Z M263.705128,22.4708571 C266.158359,22.4708571 267.498359,21.1542857 267.498359,19.344 C267.498359,17.2457143 266.178974,16.6902857 263.870051,16.2788571 C261.664205,15.888 260.922051,15.4354286 260.922051,14.2011429 C260.922051,13.0491429 261.932205,12.288 263.437128,12.288 C265.003897,12.288 265.890359,12.9051429 266.158359,14.2834286 L267.209744,14.2834286 C266.921128,12.1645714 265.39559,11.3622857 263.457744,11.3622857 C261.64359,11.3622857 259.911897,12.4114286 259.911897,14.2422857 C259.911897,16.0937143 260.983897,16.7725714 263.622667,17.2457143 C265.642974,17.616 266.446974,18.048 266.446974,19.4262857 C266.446974,20.7222857 265.519282,21.5451429 263.705128,21.5451429 C261.705436,21.5451429 260.798359,20.5371429 260.612821,19.0765714 L259.561436,19.0765714 C259.705744,21.1337143 261.169436,22.4708571 263.705128,22.4708571 Z" id="KODAK-Winning-Fotos" fill="#000000"></path>
                    <mask id="mask-2" fill="white">
                        <use xlink:href="#path-1"></use>
                    </mask>
                    <g id="Clip-6"></g>
                </g>
                <g id="Page-1-Copy" transform="translate(0.000000, 0.857143)" fill="#ED0000">
                    <g id="Group-6" transform="translate(0.000000, 0.168929)">
                        <path d="M3.34604969,15.2281186 C3.16894891,14.9741737 2.89156436,14.5930723 2.89156436,14.2121549 C2.89156436,13.906869 2.96636469,13.6271616 3.11871536,13.3984272 L11.9776042,1.07657915 C12.0531379,0.975737261 12.078988,0.84894883 12.078988,0.696029838 C12.078988,0.314744457 11.7752034,0.0100105814 11.3957017,0.0100105814 L2.20717802,0.0100105814 C1.0937898,0.0100105814 0.182435801,0.975737261 0.182435801,2.09346284 L0.182435801,26.1024807 C0.182435801,27.2452327 1.0937898,28.1598024 2.20717802,28.1598024 L11.3957017,28.1598024 C11.7752034,28.1598024 12.078988,27.8543324 12.078988,27.4737831 C12.078988,27.3221522 12.0280211,27.1694173 11.9524875,27.0420768 L3.34604969,15.2281186 Z" id="Fill-2"></path>
                        <path d="M30.4046285,0.0101025905 L21.2663384,0.0101025905 C20.4308847,0.0101025905 19.9006824,0.391019935 19.2161127,0.975645251 L4.00487925,13.9325395 C3.92806224,14.008539 3.9036788,14.0845384 3.9036788,14.1864844 C3.9036788,14.2878784 3.92806224,14.3642459 4.00487925,14.4406133 L19.6209145,27.574901 C20.0521164,27.9311599 20.6596857,28.1598944 21.2663384,28.1598944 L30.3789617,28.1598944 C31.5182,28.1598944 32.4286374,27.2453247 32.4286374,26.1023887 L32.4286374,2.09337083 C32.4286374,0.975645251 31.5182,0.0101025905 30.4046285,0.0101025905" id="Fill-4"></path>
                    </g>
                </g>
            </g>
        </g>
    </g>
</svg>