<?xml version="1.0" encoding="UTF-8" standalone="no"?>
<svg width="100px" height="43px" viewBox="0 0 100 43" version="1.1" xmlns="http://www.w3.org/2000/svg" xmlns:xlink="http://www.w3.org/1999/xlink">
    <!-- Generator: Sketch Beta 39.1 (31721) - http://www.bohemiancoding.com/sketch -->
    <title>Logo</title>
    <desc>Created with Sketch Beta.</desc>
    <defs>
        <polygon id="path-1" points="19.2001946 0.21813083 0.188906393 0.21813083 0.188906393 25.4188244 19.2001946 25.4188244 19.2001946 0.21813083"></polygon>
        <polygon id="path-3" points="18.2854416 24.9810643 18.2854416 0.245356182 0.0877723156 0.245356182 0.0877723156 24.9810643"></polygon>
        <polygon id="path-5" points="0.108493943 18.8609364 19.3108376 18.8609364 19.3108376 0.186512941 0.108493943 0.186512941"></polygon>
    </defs>
    <g id="Symbols" stroke="none" stroke-width="1" fill="none" fill-rule="evenodd">
        <g id="Logo">
            <g id="Group-10-Copy">
                <g id="Group-7">
                    <g id="Group-9">
                        <g id="Group-6">
                            <path d="M0.197791714,24.9997956 L0.197791714,1.07592784 L6.21353653,1.07592784 L6.21353653,10.5834799 L6.26958896,10.6023408 C6.41713874,10.4088112 6.56881003,10.2193818 6.71141401,10.022572 C8.18031744,7.9978915 9.64757227,5.97239094 11.1156514,3.94771042 C11.7750918,3.03828527 12.4337079,2.12804007 13.1005669,1.22517525 C13.1590923,1.1456313 13.2835616,1.06854747 13.3767076,1.06854747 C15.6979377,1.05952702 18.0191678,1.06198715 20.3395736,1.06198715 C20.3618297,1.06198715 20.3840859,1.06526731 20.4508542,1.07100759 C20.3239119,1.2423961 20.2134557,1.39820384 20.0972293,1.54827129 C19.267983,2.62252462 18.4387368,3.69677796 17.6070176,4.76939121 C16.5378999,6.14787965 15.4663093,7.52390797 14.3980159,8.90239641 C13.5621752,9.98074995 12.7271588,11.0607436 11.8987368,12.1448374 C11.8641162,12.1899396 11.8731835,12.3113057 11.9111014,12.3613281 C12.8442095,13.6217307 13.7855606,14.877213 14.7227903,16.1343355 C16.0177663,17.8711817 17.3102694,19.6113081 18.6060698,21.3473343 C19.4831255,22.5224526 20.3659513,23.6926507 21.2454799,24.866129 C21.2710332,24.8997507 21.2883435,24.9391126 21.3246127,25.0022557 C21.2487771,25.0063559 21.1951975,25.0104561 21.141618,25.0104561 C18.7025129,25.0112762 16.2634078,25.0096361 13.8243027,25.0129163 C13.6874689,25.0137363 13.6066874,24.9776545 13.5217845,24.8571085 C12.4699771,23.3605342 11.4091024,21.8697002 10.3507006,20.3772261 C9.03758993,18.5280343 7.72447928,16.6788425 6.41054434,14.8296507 C6.36520781,14.7665076 6.30997968,14.7099247 6.21848233,14.6024994 L6.21848233,24.9997956 L0.197791714,24.9997956 Z" id="Fill-1" fill="#FF0D02"></path>
                            <g id="Group-5" transform="translate(40.478965, 0.035378)">
                                <mask id="mask-2" fill="white">
                                    <use xlink:href="#path-1"></use>
                                </mask>
                                <g id="Clip-4"></g>
                                <path d="M9.79540975,20.6414088 C9.97181005,20.6414088 10.1490346,20.644689 10.3254349,20.6397687 C10.3823117,20.6381286 10.4375398,20.6102473 10.4952408,20.6012268 C11.8446207,20.3945766 12.824714,19.6688405 13.4223318,18.4642007 C14.0578675,17.1841172 14.0982582,15.8343301 13.7553492,14.4697824 C13.5228965,13.5439564 13.0406807,12.7616376 12.2691354,12.1728484 C11.2906908,11.4257913 10.1655207,11.2330817 8.99171679,11.4438322 C7.52198906,11.7078853 6.5385986,12.6041898 6.02423511,13.9941588 C5.67225881,14.9462261 5.62939518,15.932735 5.74891875,16.9340047 C5.8362946,17.6581007 6.05555852,18.3362744 6.46358726,18.9373642 C7.25656431,20.1051022 8.38255874,20.6619098 9.79540975,20.6414088 M13.6819864,7.82581254 L13.6819864,0.217474797 L19.194908,0.217474797 L19.194908,0.468407256 C19.194908,5.65024453 19.2122183,10.8329018 19.1841921,16.0147391 C19.1767734,17.4891723 18.8528233,18.9217834 18.2642727,20.2855111 C17.8414066,21.2654598 17.271815,22.1486436 16.5192287,22.9112815 C15.406423,24.0371974 14.0562189,24.7366921 12.5238443,25.1073505 C11.5214949,25.3492625 10.5018352,25.4476674 9.47393256,25.4115856 C7.47170673,25.3418822 5.59230166,24.853958 3.92968762,23.6993406 C2.04203955,22.3897356 0.914396509,20.5831859 0.419816228,18.3575954 C0.1939579,17.3407449 0.151918576,16.3132339 0.216214013,15.288183 C0.338210482,13.3553471 0.923463814,11.5684784 2.15002291,10.0350022 C3.12846756,8.81232152 4.36739117,7.93077775 5.84783481,7.38955088 C6.80649625,7.03857345 7.79318391,6.85324425 8.81201929,6.78026063 C10.5240914,6.65807456 12.1199371,7.00413174 13.6160424,7.83155282 C13.625934,7.83729311 13.6440686,7.8290927 13.6819864,7.82581254" id="Fill-3" fill="#FF0D02" mask="url(#mask-2)"></path>
                            </g>
                            <g id="Group-8" transform="translate(80.487228, 0.035378)">
                                <mask id="mask-4" fill="white">
                                    <use xlink:href="#path-3"></use>
                                </mask>
                                <g id="Clip-7"></g>
                                <path d="M0.0877723156,0.245356182 L5.62707146,0.245356182 L5.62707146,14.3844982 C5.64767897,14.3918785 5.66746218,14.3992589 5.68806969,14.4066393 C5.90980652,14.1253653 6.13319194,13.8449114 6.35410447,13.5619973 C7.09927209,12.6066499 7.84443971,11.6513025 8.58878304,10.695955 C9.31911325,9.75782846 10.0634566,8.82954237 10.772355,7.87501498 C11.0229423,7.53715821 11.2727054,7.38299055 11.7186519,7.39037092 C13.6409206,7.42153247 15.5640136,7.40349157 17.4871066,7.40349157 L17.7756117,7.40349157 C17.5316188,7.69624611 17.3123549,7.96275934 17.0897938,8.22681245 C16.4864058,8.94188795 15.8838422,9.65696345 15.2779813,10.3695788 C14.7537262,10.9878895 14.2228767,11.60128 13.6994459,12.2204107 C13.0433028,12.9953492 12.3912811,13.7743879 11.7367865,14.5509664 C11.4688889,14.8691422 11.2042884,15.1914182 10.9248506,15.4989335 C10.8226373,15.6112791 10.8514878,15.6793425 10.9289721,15.7769273 C12.1340993,17.280882 13.3359294,18.7856567 14.5394081,20.2904314 C15.688483,21.7271427 16.8375578,23.163854 17.987457,24.5997453 C18.07813,24.712911 18.1745732,24.8219764 18.2858537,24.9540029 C18.2223826,24.9630234 18.1786947,24.9745039 18.1341825,24.9745039 C15.9242329,24.975324 13.7142833,24.9728639 11.5035095,24.9810643 C11.3279335,24.9810643 11.255395,24.8785592 11.1737893,24.774414 C10.6338725,24.0847598 10.1013744,23.3901853 9.56145759,22.700531 C8.81464136,21.7468237 8.06205504,20.7972165 7.31441451,19.8443292 C6.80994263,19.2014173 6.30959224,18.5552252 5.80594466,17.9114933 C5.77132404,17.866391 5.72351461,17.8327694 5.64190887,17.7573256 L5.64190887,24.9597432 L0.0877723156,24.9597432 L0.0877723156,0.245356182 Z" id="Fill-6" fill="#FF0D02" mask="url(#mask-4)"></path>
                            </g>
                            <g id="Group-11" transform="translate(19.612006, 6.595704)">
                                <mask id="mask-6" fill="white">
                                    <use xlink:href="#path-5"></use>
                                </mask>
                                <g id="Clip-10"></g>
                                <path d="M9.69232966,14.1082265 C9.9470385,14.0844453 10.2042202,14.0770649 10.4564562,14.0352428 C11.4645757,13.8695946 12.2888761,13.3890507 12.8980342,12.56819 C13.4305323,11.8506544 13.6967813,11.037994 13.7858058,10.15153 C13.8674115,9.34460994 13.8179535,8.55491074 13.5962167,7.77833218 C13.3588181,6.94763094 12.9326548,6.22025483 12.2517826,5.67738787 C11.2139883,4.84750667 10.0146311,4.66135743 8.73696541,4.91885021 C7.90936774,5.08531848 7.20871235,5.50435928 6.66797124,6.14973132 C5.83460347,7.14280063 5.57989462,8.33431979 5.58978623,9.58652196 C5.59390773,10.0883869 5.68787798,10.5976322 5.80657725,11.0880165 C6.03573278,12.0351635 6.54185327,12.8199425 7.34637052,13.3915109 C8.04537732,13.8884555 8.83505717,14.1065864 9.69232966,14.1082265 M9.93055249,18.8611824 C8.05856613,18.8406814 6.45777462,18.5397265 4.95754777,17.8016898 C4.26018957,17.4580928 3.61888381,17.0283914 3.03280618,16.5109457 C1.8285032,15.4473529 1.01821584,14.140208 0.546715968,12.6182125 C0.254913603,11.6759857 0.124674129,10.7107978 0.109836721,9.72264871 C0.0908778098,8.40812345 0.271399612,7.13460022 0.733007874,5.90125899 C1.29105929,4.40960493 2.19943841,3.17462361 3.45896952,2.19221484 C4.74075675,1.19258521 6.19894427,0.611996385 7.79973578,0.355323641 C8.56880812,0.231497493 9.34117766,0.161794033 10.1201416,0.194595661 C11.6995013,0.261839 13.2153899,0.586575123 14.6232951,1.32461176 C16.1680341,2.13481199 17.3731614,3.28942931 18.1958133,4.8319259 C18.7208927,5.81515471 19.0769905,6.85250622 19.1915682,7.95874114 C19.2624581,8.63937493 19.3275778,9.32656905 19.3069703,10.0088429 C19.2616338,11.4685154 18.9286164,12.8675049 18.2320825,14.1664493 C17.2371518,16.0230215 15.736925,17.3170458 13.7858058,18.1051049 C12.9656268,18.4364013 12.1124758,18.6496119 11.2370687,18.7603174 C10.7350697,18.8234606 10.228125,18.8390413 9.93055249,18.8611824" id="Fill-9" fill="#FF0D02" mask="url(#mask-6)"></path>
                            </g>
                            <path d="M73.1362659,17.011697 C73.0538358,17.0051367 72.9977834,16.9961162 72.9409067,16.9961162 C71.762157,16.9952962 70.5842316,16.9936561 69.405482,16.9961162 C68.6215722,16.9985764 67.8376625,17.0371183 67.1106295,17.3643145 C66.3893665,17.6890507 66.0827268,18.1982959 66.1379549,18.8904103 C66.2047232,19.7276719 66.7215596,20.2721789 67.4683759,20.5821543 C68.6421797,21.0700785 69.8588472,21.0659783 71.0788119,20.7732238 C71.8825049,20.5805142 72.5065003,20.1450726 72.8799084,19.3824347 C73.2524922,18.6197969 73.0991723,17.8153369 73.1362659,17.011697 M64.0359887,11.734735 L64.0359887,7.56728812 C64.5923915,7.43772169 65.1512672,7.27781375 65.7208589,7.18268903 C66.569064,7.04082199 67.422215,6.90715535 68.2786632,6.84155209 C69.0304252,6.78414924 69.7920789,6.78906949 70.5446652,6.83253164 C71.2716982,6.87353368 72.0003798,6.96127804 72.7150483,7.09658475 C73.6811285,7.27863379 74.5903319,7.63371142 75.4171053,8.17493829 C76.7747281,9.06304239 77.589137,10.3267251 77.9740853,11.8782422 C78.1620258,12.6359598 78.2378615,13.4092582 78.2436316,14.1899369 C78.2526989,15.3248733 78.2963868,16.4598096 78.2799008,17.5939259 C78.2617662,18.7879052 78.1628501,19.9761442 77.6641483,21.0913996 C77.2305663,22.0615077 76.6106923,22.8881088 75.7781489,23.5531618 C74.5689001,24.5191698 73.1708865,25.0390756 71.652525,25.2793475 C70.6411084,25.4400755 69.6288674,25.4810775 68.6050862,25.4130141 C67.238396,25.3219896 65.9236368,25.0357954 64.6756459,24.4740675 C63.9362484,24.141951 63.268565,23.6942088 62.6915546,23.1242805 C61.8293364,22.2738983 61.2861223,21.2472073 61.1220866,20.0540481 C60.9629966,18.8994307 61.0544939,17.757114 61.5334125,16.6722002 C62.1335032,15.3109326 63.2463089,14.5310739 64.6006345,14.0439697 C65.4875818,13.7249738 66.4107984,13.5601457 67.3496766,13.4601007 C69.1919881,13.264111 71.0384212,13.3567756 72.8832056,13.3321743 C72.9565684,13.3313543 73.0291068,13.3321743 73.1280229,13.3321743 C73.1206042,12.8844321 72.991189,12.499833 72.7397773,12.1488556 C72.3754365,11.6420704 71.844587,11.3812975 71.2749954,11.209909 C70.2174179,10.8917332 69.1219226,10.8367904 68.0297245,10.9023937 C66.7545316,10.9802976 65.5114865,11.2656717 64.297292,11.6658516 C64.2165105,11.692913 64.1316076,11.7101338 64.0359887,11.734735" id="Fill-12" fill="#FF0D02"></path>
                        </g>
                    </g>
                </g>
                <g id="Group-6" transform="translate(0.545661, 31.317763)" fill="#222222">
                    <path d="M68.9553488,2.81442319 C69.0834339,2.81442319 69.1691524,2.89835627 69.1691524,3.01037465 L69.0124945,4.36912211 C68.9980439,4.4811405 68.9126538,4.57927764 68.7983624,4.57927764 L67.9723776,4.57927764 L67.9723776,10.3215917 C67.9723776,10.4478141 67.9007813,10.517866 67.7723678,10.517866 L65.2366107,10.517866 C65.1078688,10.517866 65.0366009,10.4478141 65.0366009,10.3215917 L65.0366009,4.57927764 L64.2818839,4.57927764 C64.1817148,4.57927764 64.0818741,4.49502174 64.0818741,4.38300335 L64.0818741,3.02457871 C64.0818741,2.89835627 64.1817148,2.81442319 64.2818839,2.81442319 L65.0651737,2.81442319 C65.1364416,1.14770589 65.9772055,0.363254393 67.6587333,0.363254393 L68.8982031,0.363254393 C69.0262883,0.363254393 69.098213,0.433306234 69.098213,0.559205856 L69.098213,1.91795332 C69.098213,2.04417576 69.0262883,2.12810884 68.8982031,2.12810884 C68.3569614,2.12810884 68.0577677,2.33826436 67.9861714,2.81442319 L68.9553488,2.81442319 Z" id="Fill-1"></path>
                    <path d="M72.231832,6.68021951 C72.231832,7.59057063 72.8016466,8.20683313 73.6424104,8.20683313 C74.4831743,8.20683313 75.0533173,7.59057063 75.0533173,6.66601545 C75.0533173,5.75566434 74.4831743,5.13940183 73.6424104,5.13940183 C72.8016466,5.13940183 72.231832,5.75566434 72.231832,6.68021951 M77.8317793,6.66601545 C77.8317793,9.10330301 76.1502515,10.727731 73.6424104,10.727731 C71.1348978,10.727731 69.4533701,9.10330301 69.4533701,6.68021951 C69.4533701,4.24293195 71.1348978,2.61818119 73.6424104,2.61818119 C76.1502515,2.61818119 77.8317793,4.24293195 77.8317793,6.66601545" id="Fill-3"></path>
                    <path d="M83.2736564,2.81442319 C83.4017415,2.81442319 83.48746,2.89835627 83.48746,3.01037465 L83.3304736,4.36912211 C83.3163514,4.4811405 83.2309613,4.57927764 83.11667,4.57927764 L82.2049666,4.57927764 L82.2049666,10.3077104 C82.2049666,10.4197288 82.1047975,10.517866 81.991163,10.517866 L79.4836504,10.517866 C79.3690306,10.517866 79.2698468,10.4197288 79.2698468,10.3077104 L79.2698468,4.57927764 L78.4569989,4.57927764 C78.357815,4.57927764 78.2579743,4.49502174 78.2579743,4.38300335 L78.2579743,3.02457871 C78.2579743,2.89835627 78.357815,2.81442319 78.4569989,2.81442319 L79.2698468,2.81442319 L79.2698468,1.28780957 C79.2698468,1.18967243 79.3690306,1.10573934 79.4836504,1.09153528 L81.991163,0.853617281 C82.1047975,0.839413221 82.2049666,0.951431602 82.2049666,1.04956874 L82.2049666,2.81442319 L83.2736564,2.81442319 Z" id="Fill-5"></path>
                    <path d="M86.4078336,6.68021951 C86.4078336,7.59057063 86.9773198,8.20683313 87.8184121,8.20683313 C88.659176,8.20683313 89.229319,7.59057063 89.229319,6.66601545 C89.229319,5.75566434 88.659176,5.13940183 87.8184121,5.13940183 C86.9773198,5.13940183 86.4078336,5.75566434 86.4078336,6.68021951 M92.0077809,6.66601545 C92.0077809,9.10330301 90.3262532,10.727731 87.8184121,10.727731 C85.3108995,10.727731 83.6293717,9.10330301 83.6293717,6.68021951 C83.6293717,4.24293195 85.3108995,2.61818119 87.8184121,2.61818119 C90.3262532,2.61818119 92.0077809,4.24293195 92.0077809,6.66601545" id="Fill-7"></path>
                    <path d="M93.3740551,8.08067526 C93.4029564,7.99674218 93.4886749,7.98286094 93.5596143,8.02482748 C94.1149783,8.34667856 94.7136941,8.59912344 95.1981186,8.59912344 C95.4976408,8.62688593 95.6969938,8.45901976 95.6969938,8.24886424 C95.6969938,7.53446459 92.5766431,7.75882417 92.5766431,5.12526233 C92.5766431,3.62673401 93.8732587,2.61824575 95.8106283,2.61824575 C96.7374391,2.61824575 97.8484954,2.94041966 98.6038692,3.41657849 C98.6748087,3.47274909 98.7175037,3.54280093 98.6892593,3.61285277 L97.9627868,5.26536601 C97.9338855,5.34962192 97.8484954,5.36350316 97.777556,5.32153661 C97.2218636,4.97127741 96.6231477,4.74724065 96.1390517,4.74724065 C95.8395295,4.71915535 95.6398481,4.85925903 95.6398481,5.08329579 C95.6398481,5.82578074 98.7601988,5.55977744 98.7601988,8.22077894 C98.7601988,9.71963008 97.5066067,10.7277955 95.6116037,10.7277955 C94.6851213,10.7277955 93.5313699,10.4059444 92.7329726,9.92946279 C92.6620332,9.85973376 92.6193381,9.7893591 92.6475826,9.70542602 L93.3740551,8.08067526 Z" id="Fill-9"></path>
                    <path d="M9.5978781,10.7529109 L7.29595854,3.31127475 L4.96612298,10.7535565 C4.94083438,10.834907 4.86431173,10.8901092 4.77793638,10.8901092 L3.34272614,10.8901092 C3.25799291,10.8901092 3.18245553,10.836844 3.15585323,10.7574304 L0.0102139675,1.42826835 C-0.0321526503,1.30269155 0.0627617106,1.17356373 0.197086879,1.17356373 L1.57088194,1.17356373 C1.65824256,1.17356373 1.73476521,1.22973433 1.75972539,1.3117305 L4.1184622,9.07198951 L6.46373366,1.32464328 C6.48836541,1.24296993 6.56423121,1.18679933 6.65093499,1.18615369 L7.99517194,1.17485501 C8.08286099,1.17388655 8.16036891,1.23037997 8.18565751,1.31302177 L10.5440659,9.07198951 L12.8886805,1.31205331 C12.9136407,1.22973433 12.9904918,1.17356373 13.0778524,1.17356373 L14.3800511,1.17356373 C14.5147047,1.17356373 14.6096191,1.30301437 14.5669241,1.42859117 L11.3936972,10.758076 C11.3670949,10.836844 11.291886,10.8901092 11.2068243,10.8901092 L9.78639313,10.8901092 C9.69968936,10.8901092 9.6231667,10.8345842 9.5978781,10.7529109" id="Fill-11"></path>
                    <path d="M15.3881139,10.6965466 L15.3881139,1.36706177 C15.3881139,1.2602085 15.4764598,1.17337004 15.5851679,1.17337004 L16.8574802,1.17337004 C16.9665167,1.17337004 17.0545342,1.2602085 17.0545342,1.36706177 L17.0545342,10.6965466 C17.0545342,10.8033999 16.9665167,10.8902383 16.8574802,10.8902383 L15.5851679,10.8902383 C15.4764598,10.8902383 15.3881139,10.8033999 15.3881139,10.6965466" id="Fill-13"></path>
                    <path d="M25.6108504,10.8120837 L20.4027122,3.92214617 L20.4027122,10.6965143 C20.4027122,10.8036904 20.3143663,10.890206 20.2056581,10.890206 L18.9333459,10.890206 C18.8243093,10.890206 18.7362919,10.8036904 18.7362919,10.6965143 L18.7362919,1.3673523 C18.7362919,1.26017621 18.8243093,1.17366058 18.9333459,1.17366058 L20.2756123,1.17366058 C20.3376843,1.17366058 20.3964721,1.20239152 20.433584,1.25146009 L25.6699666,8.15560167 L25.6699666,1.3673523 C25.6699666,1.26017621 25.7583125,1.17366058 25.8670206,1.17366058 L27.1110884,1.17366058 C27.220125,1.17366058 27.3081425,1.26017621 27.3081425,1.3673523 L27.3081425,10.6965143 C27.3081425,10.8036904 27.220125,10.890206 27.1110884,10.890206 L25.7691504,10.890206 C25.70675,10.890206 25.6479622,10.8611523 25.6108504,10.8120837" id="Fill-15"></path>
                    <path d="M35.897498,10.8120837 L30.6893598,3.92214617 L30.6893598,10.6965143 C30.6893598,10.8036904 30.6010139,10.890206 30.4923058,10.890206 L29.2199936,10.890206 C29.110957,10.890206 29.0229395,10.8036904 29.0229395,10.6965143 L29.0229395,1.3673523 C29.0229395,1.26017621 29.110957,1.17366058 29.2199936,1.17366058 L30.5619315,1.17366058 C30.6240036,1.17366058 30.6827914,1.20239152 30.7199032,1.25146009 L35.9566142,8.15560167 L35.9566142,1.3673523 C35.9566142,1.26017621 36.0449601,1.17366058 36.1536683,1.17366058 L37.3977361,1.17366058 C37.5067726,1.17366058 37.5947901,1.26017621 37.5947901,1.3673523 L37.5947901,10.6965143 C37.5947901,10.8036904 37.5067726,10.890206 37.3977361,10.890206 L36.0557981,10.890206 C35.9933976,10.890206 35.9346098,10.8611523 35.897498,10.8120837" id="Fill-17"></path>
                    <path d="M39.3049564,10.6965466 L39.3049564,1.36706177 C39.3049564,1.2602085 39.3933023,1.17337004 39.5020104,1.17337004 L40.7743227,1.17337004 C40.8833592,1.17337004 40.9713767,1.2602085 40.9713767,1.36706177 L40.9713767,10.6965466 C40.9713767,10.8033999 40.8833592,10.8902383 40.7743227,10.8902383 L39.5020104,10.8902383 C39.3933023,10.8902383 39.3049564,10.8033999 39.3049564,10.6965466" id="Fill-19"></path>
                    <path d="M49.5280213,10.8120837 L44.3198831,3.92214617 L44.3198831,10.6965143 C44.3198831,10.8036904 44.2315372,10.890206 44.1228291,10.890206 L42.8505168,10.890206 C42.7414803,10.890206 42.6534628,10.8036904 42.6534628,10.6965143 L42.6534628,1.3673523 C42.6534628,1.26017621 42.7414803,1.17366058 42.8505168,1.17366058 L44.1927832,1.17366058 C44.2548553,1.17366058 44.3136431,1.20239152 44.3507549,1.25146009 L49.5871375,8.15560167 L49.5871375,1.3673523 C49.5871375,1.26017621 49.6754834,1.17366058 49.7841915,1.17366058 L51.0282593,1.17366058 C51.1372959,1.17366058 51.2253134,1.26017621 51.2253134,1.3673523 L51.2253134,10.6965143 C51.2253134,10.8036904 51.1372959,10.890206 51.0282593,10.890206 L49.6863214,10.890206 C49.6239209,10.890206 49.5651331,10.8611523 49.5280213,10.8120837" id="Fill-21"></path>
                    <path d="M59.8599585,6.07838704 L58.0861438,6.07838704 C57.9774356,6.07838704 57.8894181,6.16490267 57.8894181,6.27175594 L57.8894181,7.49911585 C57.8894181,7.60596912 57.9774356,7.69248476 58.0861438,7.69248476 L59.8599585,7.69248476 L59.8599585,8.82203034 C59.2031117,9.23846755 58.2940358,9.48832988 57.5600095,9.48832988 C55.540534,9.48832988 53.9315878,7.97527468 53.9315878,6.03190102 C53.9315878,4.10240861 55.5067064,2.5893534 57.5261819,2.5893534 C58.488134,2.5893534 59.4717621,2.95220257 60.2185969,3.56459125 C60.3056291,3.63593437 60.4337142,3.62560414 60.5026831,3.53747441 L61.2032102,2.64132735 C61.268238,2.55836273 61.2567432,2.43762822 61.1736521,2.37209585 C60.207102,1.60895045 58.8635219,1.13182316 57.5205987,1.13182316 C54.5263626,1.13182316 52.2241146,3.25565294 52.2241146,6.03190102 C52.2241146,8.8081491 54.4534526,10.9597414 57.3770776,10.9597414 C58.6970113,10.9597414 60.2504539,10.4726067 61.2409789,9.75530164 C61.2915561,9.71850021 61.3198005,9.65974706 61.3198005,9.5977657 L61.3198005,6.27175594 C61.3198005,6.16490267 61.231783,6.07838704 61.1234033,6.07838704 L59.8599585,6.07838704 Z" id="Fill-33"></path>
                </g>
            </g>
        </g>
    </g>
</svg>